<?xml version="1.0" encoding="iso-8859-1"?>
<!-- Generator: Adobe Illustrator 19.0.0, SVG Export Plug-In . SVG Version: 6.00 Build 0)  -->
<svg version="1.1" id="Layer_1" xmlns="http://www.w3.org/2000/svg" xmlns:xlink="http://www.w3.org/1999/xlink" x="0px" y="0px"
	 viewBox="0 0 504.137 504.137" style="enable-background:new 0 0 504.137 504.137;" xml:space="preserve">
<path style="fill:#CC776E;" d="M255.707,294.903c0,110.434,9.972,164.289-82.353,164.289c-92.333,0-171.977-45.694-173.332-156.105
	C-1.616,168.675,86.354,44.945,178.679,44.945C271.012,44.945,255.707,184.469,255.707,294.903z"/>
<path style="fill:#C1625B;" d="M178.679,44.945c92.333,0,77.028,139.524,77.028,249.951s9.972,164.289-82.353,164.289
	c-92.333,0-171.977-45.694-173.332-156.105"/>
<path style="fill:#BA5C5A;" d="M255.707,294.903c0,110.434,9.972,164.289-82.353,164.289c-92.333,0-171.977-45.694-173.332-156.105"
	/>
<polyline style="fill:#AA514F;" points="115.987,108.464 115.987,177.301 197.111,177.301 197.111,251.052 "/>
<path style="fill:#EA867F;" d="M197.111,260.883c-5.427,0-9.83-4.403-9.83-9.83v-63.921h-71.294l-9.838-9.83v-68.836
	c0-5.435,4.403-9.83,9.838-9.83c5.427,0,9.83,4.395,9.83,9.83v59.006h71.294l9.838,9.83v73.752
	C206.949,256.487,202.546,260.883,197.111,260.883z"/>
<path style="fill:#AA514F;" d="M159.837,212.117c0-1.835-90.348,0-90.348,0v73.752h54.697v105.11H70.096"/>
<path style="fill:#EA867F;" d="M124.186,400.808H70.096c-5.427,0-9.83-4.403-9.83-9.83c0-5.435,4.403-9.838,9.83-9.838h44.253
	v-85.433H69.489l-9.846-9.838v-73.752l9.641-9.83c92.648-1.867,93.767-0.819,97.406,2.757l2.97,7.073
	c0,5.435-4.395,9.838-9.823,9.838c-1.048,0-2.056-0.165-3.009-0.473c-7.499-0.677-46.529-0.276-77.509,0.284v54.272h44.867
	l9.83,9.83v105.11L124.186,400.808z"/>
<path style="fill:#EA867F;" d="M75.019,343.031c-5.435,0-9.838-4.395-9.838-9.83v-7.995c0-5.427,4.403-9.83,9.838-9.83
	c5.427,0,9.823,4.403,9.823,9.83v7.995C84.841,338.636,80.446,343.031,75.019,343.031z"/>
<path style="fill:#EA867F;" d="M108.819,260.678c-5.427,0-9.83-4.403-9.83-9.838v-7.987c0-5.435,4.403-9.838,9.83-9.838
	c5.435,0,9.838,4.403,9.838,9.838v7.987C118.657,256.275,114.254,260.678,108.819,260.678z"/>
<path style="fill:#EA867F;" d="M140.783,260.678c-5.435,0-9.83-4.403-9.83-9.838v-7.987c0-5.435,4.395-9.838,9.83-9.838
	c5.435,0,9.83,4.403,9.83,9.838v7.987C150.614,256.275,146.218,260.678,140.783,260.678z"/>
<polyline style="fill:#AA514F;" points="150.826,140.838 216.386,140.838 216.386,97.397 "/>
<path style="fill:#EA867F;" d="M216.386,150.669h-65.56c-5.435,0-9.838-4.403-9.838-9.83c0-5.435,4.403-9.838,9.838-9.838h55.721
	V97.397c0-5.435,4.403-9.838,9.838-9.838c5.427,0,9.83,4.403,9.83,9.838v43.441L216.386,150.669z"/>
<polyline style="fill:#AA514F;" points="156.135,308.002 217.607,308.002 217.607,266.207 "/>
<path style="fill:#EA867F;" d="M217.607,317.833h-61.472c-5.419,0-9.823-4.395-9.823-9.83s4.403-9.838,9.823-9.838h51.641v-31.957
	c0-5.435,4.403-9.83,9.83-9.83c5.435,0,9.838,4.395,9.838,9.83v41.795L217.607,317.833z"/>
<polyline style="fill:#AA514F;" points="156.135,351.018 217.607,351.018 217.607,309.231 "/>
<path style="fill:#EA867F;" d="M217.607,360.857h-61.472c-5.419,0-9.823-4.403-9.823-9.83c0-5.435,4.403-9.83,9.823-9.83h51.641
	v-31.965c0-5.435,4.403-9.838,9.83-9.838c5.435,0,9.838,4.403,9.838,9.838v41.795L217.607,360.857z"/>
<polyline style="fill:#AA514F;" points="156.135,394.042 217.607,394.042 217.607,352.255 "/>
<path style="fill:#EA867F;" d="M217.607,403.872h-61.472c-5.419,0-9.823-4.395-9.823-9.83c0-5.435,4.403-9.838,9.823-9.838h51.641
	v-31.957c0-5.435,4.403-9.838,9.83-9.838c5.435,0,9.838,4.403,9.838,9.838v41.795L217.607,403.872z"/>
<path style="fill:#EA867F;" d="M187.706,434.207h-63.11c-5.427,0-9.83-4.403-9.83-9.83c0-5.435,4.403-9.838,9.83-9.838h63.11
	c5.427,0,9.83,4.403,9.83,9.838C197.536,429.803,193.133,434.207,187.706,434.207z"/>
<path style="fill:#CC776E;" d="M248.429,294.903c0,110.434-9.964,164.289,82.361,164.289c92.333,0,171.977-45.694,173.324-156.105
	c1.646-134.404-86.331-258.135-178.641-258.135C233.132,44.945,248.429,184.469,248.429,294.903z"/>
<path style="fill:#C1625B;" d="M325.473,44.945c-92.341,0-77.044,139.524-77.044,249.951s-9.964,164.289,82.361,164.289
	c92.333,0,171.977-45.694,173.324-156.105"/>
<path style="fill:#BA5C5A;" d="M248.429,294.903c0,110.434-9.964,164.289,82.361,164.289c92.333,0,171.977-45.694,173.324-156.105"
	/>
<polyline style="fill:#AA514F;" points="388.166,108.464 388.166,177.301 307.033,177.301 307.033,251.052 "/>
<path style="fill:#EA867F;" d="M307.033,260.883c5.419,0,9.83-4.403,9.83-9.83v-63.921h71.302l9.83-9.83v-68.836
	c0-5.435-4.403-9.83-9.83-9.83c-5.443,0-9.838,4.395-9.838,9.83v59.006h-71.294l-9.838,9.83v73.752
	C297.195,256.487,301.598,260.883,307.033,260.883z"/>
<path style="fill:#AA514F;" d="M344.307,212.117c0-1.835,90.348,0,90.348,0v73.752h-54.689v105.11h54.083"/>
<path style="fill:#EA867F;" d="M379.966,400.808h54.083c5.427,0,9.83-4.403,9.83-9.83c0-5.435-4.403-9.838-9.83-9.838h-44.253
	v-85.433h44.859l9.838-9.838v-73.752l-9.633-9.83c-92.648-1.867-93.767-0.819-97.406,2.757l-2.977,7.073
	c0,5.435,4.395,9.838,9.83,9.838c1.048,0,2.056-0.165,3.009-0.473c7.499-0.677,46.521-0.276,77.509,0.284v54.272h-44.859
	l-9.846,9.83v105.11L379.966,400.808z"/>
<path style="fill:#EA867F;" d="M429.126,343.031c5.435,0,9.838-4.395,9.838-9.83v-7.995c0-5.427-4.403-9.83-9.838-9.83
	c-5.435,0-9.83,4.403-9.83,9.83v7.995C419.295,338.636,423.691,343.031,429.126,343.031z"/>
<path style="fill:#EA867F;" d="M395.318,260.678c5.435,0,9.838-4.403,9.838-9.838v-7.987c0-5.435-4.403-9.838-9.838-9.838
	c-5.427,0-9.83,4.403-9.83,9.838v7.987C385.488,256.275,389.891,260.678,395.318,260.678z"/>
<path style="fill:#EA867F;" d="M363.361,260.678c5.443,0,9.838-4.403,9.838-9.838v-7.987c0-5.435-4.395-9.838-9.838-9.838
	c-5.435,0-9.83,4.403-9.83,9.838v7.987C353.531,256.275,357.926,260.678,363.361,260.678z"/>
<polyline style="fill:#AA514F;" points="353.318,140.838 287.759,140.838 287.759,97.397 "/>
<path style="fill:#EA867F;" d="M287.759,150.669h65.56c5.435,0,9.838-4.403,9.838-9.83c0-5.435-4.403-9.838-9.838-9.838h-55.721
	V97.397c0-5.435-4.403-9.838-9.838-9.838c-5.427,0-9.83,4.403-9.83,9.838v43.441L287.759,150.669z"/>
<polyline style="fill:#AA514F;" points="348.001,308.002 286.538,308.002 286.538,266.207 "/>
<path style="fill:#EA867F;" d="M286.538,317.833h61.464c5.427,0,9.83-4.395,9.83-9.83s-4.403-9.838-9.83-9.838h-51.633v-31.957
	c0-5.435-4.403-9.83-9.83-9.83c-5.435,0-9.838,4.395-9.838,9.83v41.795L286.538,317.833z"/>
<polyline style="fill:#AA514F;" points="348.001,351.018 286.538,351.018 286.538,309.231 "/>
<path style="fill:#EA867F;" d="M286.538,360.857h61.464c5.427,0,9.83-4.403,9.83-9.83c0-5.435-4.403-9.83-9.83-9.83h-51.633v-31.965
	c0-5.435-4.403-9.838-9.83-9.838c-5.435,0-9.838,4.403-9.838,9.838v41.795L286.538,360.857z"/>
<polyline style="fill:#AA514F;" points="348.001,394.042 286.538,394.042 286.538,352.255 "/>
<path style="fill:#EA867F;" d="M286.538,403.872h61.464c5.427,0,9.83-4.395,9.83-9.83c0-5.435-4.403-9.838-9.83-9.838h-51.633
	v-31.957c0-5.435-4.403-9.838-9.83-9.838c-5.435,0-9.838,4.403-9.838,9.838v41.795L286.538,403.872z"/>
<path style="fill:#EA867F;" d="M316.439,434.207h63.11c5.427,0,9.83-4.403,9.83-9.83c0-5.435-4.403-9.838-9.83-9.838h-63.11
	c-5.427,0-9.83,4.403-9.83,9.838C306.608,429.803,311.011,434.207,316.439,434.207z"/>
<path style="fill:#AA514F;" d="M257.976,412.064c0,3.261-2.647,5.908-5.908,5.908l0,0c-3.261,0-5.908-2.647-5.908-5.908V112.741
	c0-3.261,2.647-5.908,5.908-5.908l0,0c3.261,0,5.908,2.647,5.908,5.908V412.064z"/>
<g>
</g>
<g>
</g>
<g>
</g>
<g>
</g>
<g>
</g>
<g>
</g>
<g>
</g>
<g>
</g>
<g>
</g>
<g>
</g>
<g>
</g>
<g>
</g>
<g>
</g>
<g>
</g>
<g>
</g>
</svg>
