<?xml version="1.0" encoding="iso-8859-1"?>
<!-- Generator: Adobe Illustrator 19.0.0, SVG Export Plug-In . SVG Version: 6.00 Build 0)  -->
<svg xmlns="http://www.w3.org/2000/svg" xmlns:xlink="http://www.w3.org/1999/xlink" version="1.1" id="Layer_1" x="0px" y="0px" viewBox="0 0 512.001 512.001" style="enable-background:new 0 0 512.001 512.001;" xml:space="preserve" width="512px" height="512px">
<g>
	<g>
		<path d="M500.885,284.085c-1.339-6.822-5.035-12.399-8.638-18.186c-3.915-6.29-6.356-13.218-10.743-19.268    c-2.346-3.235-4.88-6.337-7.553-9.306c-2.098-2.331-4.404-4.391-4.909-7.599c-0.504-3.203,0.228-6.676,0.104-9.908    c-0.182-4.723-1.176-8.525-2.911-12.858c-2.588-6.462-3.553-13.111-7.557-19.049c-3.969-5.888-8.817-10.865-15.269-13.97    c-5.975-2.877-12.669-4.404-19.471-5.048c-5.639-6.873-13.894-10.912-21.224-15.675c-8.904-5.786-18.082-11.138-28.264-14.372    c-21.547-6.843-42.693-2.409-64.25,1.519c-4.847,0.882-9.761,1.247-14.61,2.097c-5.354,0.939-10.15,2.449-15.662,2.294    c-10.558-0.295-20.669-3.911-31.034-5.54c-11.102-1.745-22.449-0.775-33.55,0.593c-5.54,0.683-11.041,1.612-16.57,2.373    c-4.985,0.687-10.06,0.719-14.718,2.839c-3.509,1.598-7.162,1.643-10.697,3.149c-4.588,1.955-8.787,5.547-13.198,7.985    c-9.661,5.341-19.434,8.046-29.878,11.341c-18.686,5.893-36.661,14.125-52.389,25.918c-7.298,5.473-13.868,11.582-19.154,19.059    c-5.636,7.975-8.114,17.022-10.083,26.457c-1.119,5.364-2.002,10.831-2.294,16.306c-0.3,5.628-1.797,9.669-4.19,14.74    c-4.026,8.532-8.356,17.444-9.721,26.86c-3.087,21.282,2.771,42.788,15.369,60c6.444,8.806,13.974,16.052,22.682,22.601    c2.29,1.722,4.491,3.166,6.7,4.332c1.293,2.576,2.611,5.146,4.232,7.509c3.852,5.617,8.907,10.224,14.849,13.582    c5.724,3.236,11.5,5.538,17.828,7.223c6.634,1.767,12.578,4.372,19.476,5.216c13.623,1.667,27.14-0.442,40.492-3.052    c6.102-1.193,12.556-1.433,18.779-2.36c7.993-1.19,10.09,2.055,15.364,7.156c8.817,8.529,24.937,7.885,35.806,4.526    c5.94-1.836,11.294-5.028,16.98-7.456c3.36-1.435,6.253-3.144,9.741-3.842c1.495-0.299,3.065-0.201,4.549-0.578    c-0.079,0.02,4.731-1.652,3.417-1.556c5.342-0.39,11.097,4.26,13.773,8.407c3.584,5.551,4.26,12.414,7.474,18.173    c5.478,9.822,16.125,17.769,26.275,22.186c5.669,2.466,11.908,4.616,18.145,4.736c3.33,0.064,6.595-0.67,9.847-1.288    c4.778-0.907,8.94-0.889,13.813-0.629c2.346,0.125,5.595,0.766,8.064,0.293c0.017,0.017,0.024,0.027,0.04,0.043    c0.748,0.958,1.479,1.545,2.44,2.358c4.817,4.079,10.792,5.512,16.877,6.604c13.488,2.422,27.754,1.083,39.938-5.497    c12.069-6.517,20.819-18.484,28.287-29.664c3.757-5.623,6.228-11.884,9-18.017c3.142-6.949,6.701-12.326,7.659-20.064    c0.735-5.938,1.651-11.977,1.551-17.97c-0.104-6.32-2.516-12.921-1.754-19.182c0.771-6.329,5.733-10.019,9.137-14.96    c4.191-6.086,5.727-13.836,7.679-20.848c1.84-6.613,1.912-12.961,2.712-19.695C500.522,297.973,502.307,291.327,500.885,284.085z     M481.832,310.504c-0.153,6.27-2.31,12.26-3.791,18.313c-0.82,3.35-1.44,6.434-3.282,9.397c-1.648,2.649-3.919,4.86-5.645,7.456    c-3.067,4.616-4.557,10.042-4.884,15.552c-0.372,6.246,1.685,12.309,1.508,18.587c-0.157,5.531-1.155,11.283-2.258,16.701    c-1.219,5.992-5.776,11.693-8.507,17.186c-5.548,11.159-13.442,22.403-23.01,30.538c-8.445,7.18-20.518,9.646-31.352,8.117    c-4.496-0.635-8.77-1.469-12.363-4.127c-1.767-1.307-3.369-2.18-4.955-2.759c4.74-3.707,8.601-7.838,13.075-12.281    c2.845-2.823,5.769-5.489,8.133-8.755c2.51-3.465,3.556-7.203,4.992-11.142c0.963-2.639,2.339-4.904,3.626-7.071    c1.238,0.344,2.5,0.592,3.775,0.726c6.281,0.665,15.65,1.331,20.924-2.615c3.534-2.643,3.529-6.93,0-9.574    c-6.456-4.836-14.997-1.426-22.238-3.02c-0.124-0.308-0.228-0.609-0.376-0.928c-0.761-1.632-2.059-2.539-3.516-2.892    c-0.044-3.68,0.505-7.815,3.143-10.478c3.672-3.707-1.777-8.936-5.65-5.65c-4.285,3.633-5.987,8.785-7.829,13.895    c-1.789,4.96-2.553,9.427,0.932,13.704c-1.58,3.489-4.236,6.801-5.461,10.411c-2.322,6.841-5.892,10.636-10.53,16.003    c-3.796,4.395-6.456,9.078-10.913,12.918c-2.043,1.759-4.319,3.878-6.755,5.915c-5.594,0.069-11.009-0.064-16.648,1.212    c-6.795,1.538-11.348,1.68-18.007-0.638c-9.98-3.473-19.986-10.863-23.289-21.124c-3.457-10.742-8.355-20.976-18.637-26.718    c-1.369-0.765-2.865-1.519-4.433-2.185c5.774-4.411,11.348-9.055,17.239-13.353c2.845-2.075,5.443-4.289,7.883-6.651    c4.561,3.14,10.119,5.057,15.369,6.623c11.081,3.307,24.56,3.347,35.927,1.67c10.15-1.497,19.951-5.608,28.17-11.749    c6.455-4.822,11.916-12.712,9.513-20.984c-0.949-3.267-5.162-2.886-6.26,0c-2.083,5.467-10.136,7.697-14.945,10.227    c-2.264,1.19-4.544,2.318-6.851,3.344c0.171-8.63-0.35-16.826-1.533-25.677c-0.708-5.299-1.817-10.576-2.451-15.877    c-0.49-4.097,0.199-8.007,0.969-11.955c0.963-0.258,1.926-0.488,2.891-0.643c5.259-0.839,10.522-0.949,15.831-1.105    c10.032-0.295,20.223-0.77,30.251-0.11c4.355,0.288,9.306,1.051,12.739,4.025c3.116,2.701,3.612,6.331,5.03,9.966    c0.953,2.442,1.903,5.525,3.268,8.27c-2.605,7.187-2.025,14.068,4.177,20.005c5.845,5.595,14.666-1.447,11.012-8.496    c-1.004-1.937-2.002-2.69-1.936-4.882c0.082-2.634,1.537-5.767,2.945-7.86c1.878-2.795,4.91-8.376,7.646-10.324    c4.982-3.544,1.816-10.315-4.003-9.494c-3.987,0.563-6.544,3.463-9.2,6.21c-0.358,0.372-0.721,0.74-1.087,1.107    c-0.483-2.309-1.133-4.604-2.055-6.884c-4.197-10.367-15.237-14.734-25.647-15.746c-11.272-1.097-23.735-0.433-34.852,1.563    c-5.089,0.913-10.386,2.124-15.17,4.134c1.034-5.981,2.181-11.981,4.245-17.666c2.667-7.343,6.792-11.899,12.188-16.489    c4.639,2.84,10.281,4.299,15.586,4.543c5.25,0.242,13.317-0.999,16.451-5.678c0.689-1.028,0.692-2.703,0-3.731    c-4.769-7.085-16.294-5.246-23.394-8.24c-4.049-1.707-6.911-5.375-8.947-9.168c-3.195-5.953-2.413-11.685-1.327-17.967    c0.903-5.223-6.655-7.541-8.091-2.231c-1.949,7.213-4.558,14.146-3.312,21.805c0.541,3.319,1.735,6.804,3.425,10.014    c-11.505,11.445-15.166,30.924-17.807,45.977c-0.826,4.702-2,9.386-2.51,14.137c-0.623,5.804,0.647,11.304,1.515,17.021    c1.733,11.428,4.305,22.793,5.406,34.317c-2.63,0.76-5.328,1.317-8.138,1.554c-9.317,0.784-19.128,0.629-28.364-0.651    c-2.937-0.408-6.162-0.641-9.363-1.039c0.499-0.633,0.994-1.27,1.481-1.923c6.58-8.833,12.259-17.551,16.079-27.898    c1.112-3.015,2.355-7.483,2.477-11.606c3.01-0.809,5.873-2.061,8.41-3.725c2.146-1.408,2.163-4.375,0-5.779    c-6.76-4.382-12.721-4.332-20.569-4.208c-2.947,0.047-10.632-0.147-11.403-3.661c-1.068-4.864-8.718-3.755-8.635,1.169    c0.116,6.833,6.322,12.138,12.092,14.791c2.319,1.066,4.806,1.776,7.356,2.158c-0.304,1.234-0.483,2.527-0.837,3.757    c-1.019,3.526-2.399,6.948-3.977,10.26c-3.91,8.206-9.592,16.274-15.578,23.063c-4.208,4.772-9.311,8.25-14.349,12.066    c-4.615,3.497-8.656,7.49-12.949,11.353c-3.217,2.894-6.737,5.242-10.28,7.575c-4.203,0.785-8.273,1.557-12.427,3.63    c-9.989,4.982-20.977,11.462-32.59,9.957c-5.871-0.761-8.484-6.626-13.478-9.553c-1.373-0.804-2.775-1.449-4.198-1.965    c2.4-1.305,4.726-2.731,6.843-4.585c4.017-3.518,7.041-7.984,10.187-12.254c2.668-3.624,5.68-7.191,7.233-11.474    c2.302-6.348,2.789-13.092,2.305-19.78c5.841,3.387,12.018,4.702,19.023,4.78c3.969,0.045,8.104-0.229,11.872-1.589    c3.842-1.386,7.012-4.428,10.903-5.539c4.873-1.39,3.34-7.678-1.115-8.241c-5.75-0.726-10.806,1.197-16.479,1.226    c-5.987,0.031-11.921-0.118-17.53-2.413c-5.667-2.319-8.255-6.05-12.632-9.911c-1.83-1.612-4.084-2.358-5.98-3.814    c-3.647-2.8-5.612-7.062-6.002-11.578c-0.299-3.466-5.577-3.587-5.494,0c0.164,7.006,3.025,13.914,7.324,19.403    c3.602,4.601,5.98,9.211,9.986,13.115c-0.375,2.234-0.889,4.448-1.841,6.709c-1.78,4.221-3.324,8.897-5.396,12.97    c-1.83,3.598-4.57,6.602-6.937,9.846c-0.968,1.326-1.912,2.666-2.89,3.975c-3.056-0.79-6.393,1.164-9.774,0.771    c-7.531-0.877-11.8-5.448-16.602-10.778c-4.42-4.905-5.654-10.971-8.973-16.635c-2.212-3.778-2.761-7.411-2.809-11.726    c-0.024-2.085,0.068-3.776-0.32-5.434c2.061-1.545,3.787-3.374,4.878-5.496c2.897-5.631-2.833-10.847-8.303-8.303    c-4.111,1.91-7.791,4.708-11.605,7.139c-1.702,1.086-5.687,4.725-8.462,4.794c-0.12-0.124-0.274-0.219-0.458-0.263    c-0.503-0.121-1.006-0.242-1.509-0.364c-0.955-0.23-2.154,0.298-2.364,1.343c-1.446,7.201,8.098,7.723,12.964,7.036    c1.236-0.174,2.556-0.445,3.907-0.802c-0.151,5.559,1.502,11.825,3.539,15.665c1.147,2.163,2.736,3.928,3.702,6.219    c0.139,0.331,0.24,0.673,0.344,1.013c-0.423,0.34-0.84,0.684-1.244,1.031c-4.601,3.939-9.436,5.021-15.051,7.102    c-8.899,3.298-18.397,6.163-26.674,0.132c-5.479-3.992-10.554,4.262-6.779,8.787c7.258,8.7,21.678,6.121,30.864,2.603    c5.294-2.027,10.838-4.23,15.888-6.786c2.102-1.064,3.882-2.344,5.542-3.994c0.221-0.22,0.445-0.473,0.671-0.748    c1.404,1.891,3.153,3.588,4.714,5.232c5.349,5.637,11.024,11.027,19.123,11.932c1.095,0.123,2.257,0.222,3.433,0.27    c-2.537,1.318-5.146,2.52-7.534,4.086c-3.268,2.146-5.661,3.8-9.476,4.841c-4.374,1.193-8.899,1.327-13.281,2.386    c-1.189,0.288-2.342,0.676-3.48,1.097c-4.921,1.009-9.861,1.825-14.895,2.212c-6.678,0.514-13.576,0.633-20.141-0.857    c-6.63-1.505-14.377-3.069-20.636-5.662c-5.684-2.354-11.051-4.717-15.959-8.158c0.958-0.084,1.933-0.197,2.947-0.366    c2.498-0.414,2.36-4.393,0-4.912c-8.495-1.871-14.694-8.445-21.104-13.849c-6.7-5.646-12.505-11.967-17.273-19.337    c-3.878-5.995-6.961-12.61-8.964-19.518c5.824,7.306,14.272,12.506,23.772,13.592c11.13,1.271,23.71-2.239,33.807-6.828    c4.241-1.927,8.982-5.199,12.918-7.804c4-2.647,5.553-6.343,4.9-11.013c-0.703-5.03-8.241-5.32-10.457-1.367    c-0.978,1.744-4,2.295-5.696,3.322c-3.606,2.181-6.121,4.626-10.197,6.015c-7.953,2.708-15.56,6.035-24.176,5.616    c-7.571-0.368-13.773-3.36-18.906-8.842c-2.137-2.281-5.804-5.81-8.518-9.535c-0.04-4.391,0.418-8.799,1.458-13.152    c1.977-8.278,6.579-15.799,10.592-23.214c1.995-3.682,3.998-7.545,5.03-11.629c1.208-4.788,0.905-9.806,1.694-14.661    c1.4-8.609,3.208-18.029,7.74-25.599c3.942-6.586,9.65-12.049,15.663-16.753c13.748-10.752,29.668-18.38,46.029-24.215    c2.38-0.849,4.758-1.66,7.126-2.47c-1.405,3.451-2.241,6.718-4.347,9.976c-4.966,7.688-7.536,15.966-10.528,24.546    c-4.327,12.403-4.259,27.085,0.591,39.705c-12.368-3.639-28.984,0.711-39.214,5.04c-7.364,3.116-16.558,8.706-21.37,15.268    c-4.524,6.168-3.255,13.643,0.222,20.005c0.682,1.248,2.693,1.289,3.364,0c2.146-4.126,2.725-9.114,5.937-12.658    c3.773-4.163,9.723-7.925,15.244-10.283c0.313,0.26,0.666,0.483,1.074,0.639c3.523,1.34,3.48,7.523,3.61,10.879    c0.211,5.427-1.63,10.195-0.586,15.656c0.101,0.529,0.3,1.008,0.556,1.447c-2.032-0.031-4.031,0.335-5.519,1.352    c-0.312,0.096-0.629,0.175-0.903,0.196c-4.144,0.323-4.209,5.884-0.311,6.536c0.949,1.233,2.426,2.147,3.73,2.932    c2.868,1.727,5.584,2.188,8.866,1.431c2.51-0.579,4.333-3.18,4.333-5.691c0-1.836-0.853-3.358-2.153-4.438    c0.986-0.467,1.817-1.23,2.307-2.341c4.117-9.353,3.902-25.101-4.401-31.981c4.016-1.024,8.109-1.886,12.057-2.611    c4.874-0.895,13.454-3.002,18.617-0.951c3.511,5.203,9.133,12.593,15.648,16.381c-2.911,2.005-5.97,2.845-8.521,0.71    c-2.584-2.163-6.958,0.584-4.942,3.813c6.204,9.936,19.136,8.984,28.054,2.943c7.483-5.067,17.833-17.06,14.096-26.982    c-1.199-3.186-5.875-5.521-8.516-2.248c-1.605,1.991-3.978,3.269-5.732,5.143c-1.896,2.027-3.482,4.304-5.076,6.566    c-0.524,0.744-1.21,1.681-2.011,2.703c-1.712-1.954-3.217-4.175-4.341-5.714c-3.319-4.543-6.806-9.152-9.415-14.157    c-2.01-3.856-3.354-8.263-4.282-12.658c2.041-2.502,4.534-4.525,7.146-6.498c7.165-5.415,15.505-9.633,23.601-13.477    c8.341-3.961,16.883-3.284,25.814-4.076c2.919-0.26,5.925-1.022,8.938-1.607c1.799,0.471,3.597,0.942,5.384,1.444    c-0.364,0.978-0.67,2.024-0.85,3.264c-0.584,4.024-0.666,8.165-0.673,12.228c-0.012,7.907,0.556,16.427,3.91,23.688    c3.101,6.713,8.693,13.21,14.966,17.167c3.01,1.9,6.444,2.455,9.788,3.097c-1.102,2.679-2.076,5.41-3.098,8.21    c-1.863,5.102-3.838,9.883-0.109,14.729c4.872,6.329,13.78,2.633,12.644-5.331c0.042,0.302,1.69-3.783,2.217-5.329    c1.202-3.528,2.267-7.027,3.67-10.486c0.776-1.915,1.51-3.841,2.472-5.675c0.528-1.006,1.222-1.935,1.724-2.95    c0.329-0.666,0.614-0.878,0.757-0.942c3.39,0.601,5.952-4.078,3.263-6.534c-7.406-6.766-13.877-2.217-18.513,4.638    c-6.191-3.713-12.55-7.625-16.788-13.646c-4.41-6.265-5.502-15.362-6.122-22.813c-0.285-3.423-0.644-6.847-0.482-10.255    c4.272,1.889,8.865,4.369,13.522,4.764c1.786,7.752,9.062,18.218,17.513,13.721c1.097-0.584,1.643-2.042,1.308-3.216    c-1.065-3.741-4.236-5.478-6.548-8.364c-3.134-3.913-3.171-8.753-1.853-13.45c2.156-7.673,9.424-15.344,5.184-23.508    c-1.261-2.428-5.538-2.66-6.727,0c-2.442,5.458-4.375,11.289-6.721,16.858c-0.863,2.048-1.513,4.175-1.959,6.341    c-7.055-4.369-14.849-6.947-23.428-7.878c-4.331-0.471-10.573-1.447-15.578-0.29c-9.569,0.033-19.137,0.635-27.97,4.744    c-9.565,4.448-19.163,9.614-27.136,16.615c0.739-4.193,2.179-8.232,3.547-12.591c2.071-6.595,4.517-12.293,8.041-18.232    c2.977-5.015,3.339-10.916,6.822-15.546c1.88-2.498,3.67-5.075,5.534-7.591c0.193-0.096,0.389-0.18,0.581-0.277    c4.094-2.065,8.277-4.204,12.165-6.639c1.588-0.993,3.018-2.472,4.675-3.321c2.071-1.061,4.3-0.877,6.511-1.442    c3.431-0.88,6.098-2.821,9.684-3.277c1.123-0.142,2.245-0.3,3.368-0.453c-0.098,0.234-0.189,0.459-0.27,0.667    c-1.832,4.765-3.704,9.656-4.416,14.711c-0.839,5.964-4.951,13.461-0.302,18.709c2.124,2.397,6.336,5.198,8.866,1.803    c1.405-1.887,0.896-4.51,1.43-6.692c0.78-3.19,2.013-5.871,2.349-9.216c0.547-5.444,1.527-10.376,2.762-15.694    c0.375-1.612,0.688-3.767,1.228-5.838c9.858-1.22,20.092-2.028,30.017-1.415c10.128,0.625,19.902,4.719,29.846,6.616    c9.101,1.735,17.346,1.692,26.4-0.271c10.38-2.25,21.191-3.156,31.683-5.005c10.267-1.811,20.605-3.112,31.025-1.656    c10.908,1.523,20.721,6.104,29.975,11.893c1.759,1.1,3.627,2.174,5.53,3.253c-8.213,0.706-16.365,4.393-23.445,8.104    c-10.077,5.282-18.526,12.551-27,20.012c-0.753-1.164-1.574-2.268-2.371-3.286c-5.161-6.612-12.519-10.319-20.427-12.739    c-5.896-1.805-12.753-2.12-18.94-2.139c-1.418-0.004-2.77,0.078-4.044,0.271c0.026-2.062,0.155-4.374,1.207-5.838    c2.744-3.814-2.685-9.154-6.492-6.492c-4.833,3.379-6.503,9.248-7.697,14.772c-1.25,5.79-5.093,17.334,1.341,21.367    c5.998,3.76,8.954-2.818,10.172-8.058c0.11-0.027,0.221-0.05,0.33-0.082c1.171-0.348,2.084-1.01,3.021-1.761    c0.061-0.049,0.104-0.084,0.159-0.129c2.881,0.436,6.489,0.104,9.401,0.242c6.121,0.293,11.601,1.817,17.15,4.451    c2.608,1.239,6.938,3.496,10.003,6.175c-2.657,2.823-5.043,5.94-6.533,9.352c-1.504,2.464-2.661,5.126-3.791,7.782    c-1.827,4.296-3.689,8.637-5.397,13.025c-7.76-4.758-16.441-7.497-25.725-5.327c-4.863,1.135-9.888,3.668-13.949,6.55    c-0.647,0.459-1.359,0.95-2.091,1.474c-2.208-3.142-5.194-5.768-8.201-8.931c-2.899-3.05-8.199,0.922-5.883,4.539    c2.084,3.255,3.858,6.651,4.42,10.539c0.62,4.28-0.852,8.147-1.282,12.341c-0.481,4.689,1.417,14.01,8.169,10.721    c5.13-2.5,6.423-11.454,6.331-17.458c4.423-1.455,8.911-4.292,12.066-5.698c7.641-3.404,15.46-2.518,23.283-0.767    c-0.171,0.528-0.348,1.056-0.51,1.586c-1.27,4.125-2.709,9.26-2.4,13.929c-0.682,0.272-1.35,0.564-1.981,0.896    c-3.867,2.028-7.263,5.088-11.388,6.573c-4.015,1.446-3.635,7.796,1.049,7.751c4.098-0.04,8.023-0.574,12.024-1.433    c3.844-0.826,7.356-0.674,11.22-0.967c8.603-0.65,9.353-11.922,2.092-14.215c-0.153-0.899-0.226-1.845-0.127-2.896    c0.531-5.563,2.114-11.159,3.731-16.484c0.928-3.059,1.805-6.136,2.716-9.205c1.348-0.197,2.585-0.924,3.245-2.275    c1.586-3.245,2.399-6.82,4.418-9.851c2.321-3.484,5.663-5.946,8.833-8.599c7.135-5.97,13.958-12.348,21.973-17.149    c6.715-4.023,14.167-7.803,21.985-8.996c2.418-0.37,4.838-0.401,7.252-0.159c9.074,5.65,19.334,5.106,29.424,8.199    c4.822,1.477,8.421,4.012,11.303,8.163c3.46,4.982,4.006,10.729,6.348,16.207c2.011,4.708,1.516,9.211,1.557,14.062    c-0.139,0.02-0.277,0.043-0.421,0.06c-4.191,0.471-8.481-1.174-12.667-1.4c-5.19-0.281-15.703,1.509-18.887-3.59    c-0.501-0.802-1.739-0.659-2.008,0.262c-2.502,8.569,9.894,12.678,15.937,14.378c6.432,1.812,14.571,4.817,21.542,4.173    c1.128,1.99,2.501,3.897,4.103,5.79c3.859,4.556,7.896,8.716,10.978,13.887c3.162,5.305,5.369,11.009,8.743,16.212    c2.789,4.299,5.283,8.237,5.529,13.502C483.835,297.278,481.993,303.945,481.832,310.504z" fill="#424242"/>
	</g>
</g>
<g>
	<g>
		<path d="M54.596,138.788c-2.555-5.758-9.883-8.788-15.8-11.187c0.041-0.514,0.086-1.029,0.142-1.547    c0.531-4.898,2.415-9.211,2.331-14.194c-0.072-4.25-6.098-4.093-6.493,0c-0.432,4.475-2.787,8.392-3.712,12.759    c-5.744-1.965-11.62-3.498-17.283-5.675c-2.81-1.08-4.451,3.276-2.001,4.746c5.837,3.507,11.618,6.884,17.618,10.053    c-0.358,1.635-0.797,3.263-1.405,4.895c-2.307,6.18-5.085,14.215-3.303,20.785c0.423,1.563,1.812,3.153,3.465,3.465    c0.427,0.081,0.854,0.161,1.28,0.242c1.385,0.262,3.232-0.143,3.892-1.584c1.474-3.22,0.994-6.99,1.52-10.509    c0.604-4.035,1.524-7.752,2.605-11.685c0.088-0.321,0.155-0.642,0.229-0.963c4.386,2.679,8.938,5.447,13.767,5.886    C54.495,144.55,55.596,141.042,54.596,138.788z" fill="#424242"/>
	</g>
</g>
<g>
	<g>
		<path d="M82.115,108.689c0.188-3.041-3.552-5.003-6.042-3.466c2.319-1.432-0.804,0.068-1.478,0.401    c-0.82,0.404-1.726,1.219-2.487,1.727c-0.327,0.219-0.662,0.419-0.992,0.632c-2.842-3.526-6.253-6.567-8.44-10.504    c-1.064-1.915-3.97-0.6-3.469,1.463c1.141,4.691,3.226,8.945,4.964,13.395c-3.336,2.438-6.215,5.483-9.669,7.778    c-0.995,0.661-1.043,2.594,0.372,2.83c4.268,0.711,8.255-0.724,12.183-2.336c1.202,3.332,2.666,6.613,4.934,9.069    c1.945,2.105,4.945,0.754,5.843-1.543c1.468-3.75,0.26-7.751-1.482-11.418C79.501,115.061,81.859,112.821,82.115,108.689z" fill="#424242"/>
	</g>
</g>
<g>
	<g>
		<path d="M106.312,79.391c-3.399-3.116-7.705,2.129-4.687,4.806c0.565,0.679,1.156,1.385,1.757,2.105    c0.944,2.424,1.188,6.602,1.299,8.103c0.27,3.662,0.266,4.445-2.697,6.278c-0.926,0.573-2.689,1.565-3.746,1.318    c-3.543-0.823-6.975-9.271-9.9-11.685c-3.263-2.693-7.834,1.624-4.732,4.732c5.736,5.749,7.648,19.002,18.87,14.992    c8.138-2.909,7.883-9.715,6.612-16.664c4.62,6.066,8.826,12.841,9.751,19.599c1.686,12.329-13.524,21.766-23.689,24.244    c-1.4,0.341-1.55,2.754,0,2.986c14.729,2.202,31.888-6.594,33.631-22.77C130.439,102.019,116.601,88.825,106.312,79.391z" fill="#424242"/>
	</g>
</g>
<g>
	<g>
		<path d="M155.444,478.199c-6.37-8.429-15.936-13.986-25.014-19.096c-2.114-1.189-4.664-2.05-6.589-3.525    c-1.959-1.502-3.212-3.18-5.499-4.345c-2.447-1.247-5.111-1.868-7.651-2.869c-3.718-1.464-6.68-4.135-9.844-6.504    c-5.061-3.791-10.546-6.516-15.744-10.009c-3.592-2.414-6.667-6.631-11.451-6.54c-3.727,0.07-6.357,2.463-8.099,5.667    c-1.62,1.727-2.231,3.262-3.102,5.767c-1.354,3.89-3.884,4.686-6.383,7.553c-2.658,3.05-4.106,7.048-6.301,10.417    c-2.642,4.055-6.053,7.691-9.11,11.437c-10.202,12.504-19.38,26.037-21.225,42.509c-0.199,1.781,1.692,3.364,3.341,3.341    c4.895-0.069,8.511-2.258,12.83-4.329c3.97-1.904,8.476-3.14,12.913-4.097c0.042,0.495,0.082,0.983,0.116,1.447    c0.064,0.849,1.208,1.275,1.676,0.453c0.534-0.941,1.139-1.789,1.74-2.612c0.338-0.064,0.678-0.132,1.013-0.194    c13.121-2.456,25.997-6.082,39.199-8.1c5.823-0.89,11.517-2.247,17.283-3.414c5.072-1.027,10.256-1.3,15.367-2.047    c0.946,0.894,2.496,0.543,3.032-0.519c0.495-0.096,0.99-0.185,1.482-0.297c5.118-1.155,9.713-2.363,14.951-2.764    c4.03-0.308,7.384-0.928,10.574-3.483C155.93,481.258,156.218,479.221,155.444,478.199z M62.797,447.747    c0.738-0.768,1.542-1.445,2.299-2.162c0.715-0.105,1.406-0.556,1.752-1.391c0.848-2.051,3.176-7.844,5.317-8.892    c2.459-1.202,7.477,4.317,9.775,5.729c2.899,1.782,5.804,3.397,8.647,5.184c-1.254,1.303-2.53,2.594-3.744,3.909    c-2.758,2.984-5.054,9.174-9.692,8.096c-3.948-0.917-7.156-5.796-10.701-7.858c-1.352-0.788-2.686-1.534-4.066-2.142    C62.524,448.064,62.652,447.899,62.797,447.747z M37.138,499.845c-3.526,1.176-6.796,3.519-10.335,4.721    c1.895-8.935,6.467-16.756,11.852-24.073c5.594,2.883,7.957,9.884,9.066,16.525C44.145,497.789,40.59,498.694,37.138,499.845z     M119.742,480.631c0.151,0.968,0.367,1.795,0.638,2.541c-10.815,1.371-21.363,3.698-32.143,5.356    c-11.084,1.706-21.858,4.913-32.87,6.993c0.16-3.998-1.69-8.53-3.916-11.788c-2.748-4.024-6.027-6.264-10.023-6.896    c2.862-3.656,5.855-7.206,8.734-10.728c2.052-2.509,4.189-4.959,5.942-7.694c0.954-1.487,1.773-3.07,2.617-4.635    c7.422,6.461,15.14,17.761,25.662,12.247c4.631-2.427,7.422-8.048,10.806-11.875c0.802-0.908,1.632-1.941,2.328-3.03    c2.617,1.998,5.272,3.965,8.297,5.249c4.196,1.782,8.173,2.754,11.95,5.278c1.463,0.977,2.935,1.716,4.438,2.388    c-1.245,2.346-1.864,5.178-2.225,7.602C119.54,474.615,119.276,477.645,119.742,480.631z M137.379,479.632    c-2.937,0.483-5.785,1.277-8.656,1.995c0.084-0.748,0.15-1.495,0.166-2.234c0.052-2.316-0.063-4.657,0.221-6.961    c0.188-1.522,0.503-3.372,1.073-4.911c6.393,2.918,12.791,6.203,17.614,11.315C144.54,479.727,140.427,479.13,137.379,479.632z" fill="#424242"/>
	</g>
</g>
<g>
	<g>
		<path d="M76.38,439.77c-2.151,0-4.211,1.891-4.111,4.111c0.1,2.227,1.807,4.111,4.111,4.111c2.151,0,4.211-1.891,4.111-4.111    C80.391,441.653,78.684,439.77,76.38,439.77z" fill="#424242"/>
	</g>
</g>
<g>
	<g>
		<path d="M337.561,84.498c-3.849,6.873,3.121,13.515,6.547,18.795c0.491,0.743,0.94,1.51,1.371,2.29    c-0.237,0.201-0.536,0.471-0.908,0.817c-1.134,0.665-2.105,1.532-3.35,2.028c-2.49,0.993-3.212,0.891-4.337-1.335    c-0.532-1.054-2.117-1.197-2.902-0.373c-4.344,4.563-2.482,11.311,4.578,11.503c5.476,0.15,13.615-4.088,15.441-9.507    c1.047-3.112-0.485-5.878-2.25-8.38c-1.892-2.681-7.665-7.635-7.302-11.233c0.368-3.656,8.145-6.401,12.451-7.75    c1.488,0.981,3.947-0.073,3.902-2.094C360.533,66.976,340.519,79.215,337.561,84.498z" fill="#424242"/>
	</g>
</g>
<g>
	<g>
		<path d="M370.674,84.507c-0.404-0.639-1.323-0.652-1.726,0c-1.942,3.147-2.088,7.281-2.851,10.834    c-0.739,3.438-2.394,6.691-1.976,10.159c-0.206,0.715-0.112,1.438,0.442,2.02c0.208,0.219,0.416,0.437,0.624,0.655    c1.194,1.252,3.479,1.291,4.667,0C375.038,102.547,374.642,90.77,370.674,84.507z" fill="#424242"/>
	</g>
</g>
<g>
	<g>
		<path d="M373.047,71.425c-0.248-1.381-1.869-2.525-3.236-2.464c-1.385,0.063-2.97,0.986-3.236,2.464    c-0.24,1.335-0.164,2.896,1.014,3.827c0.651,0.513,1.345,0.959,2.222,0.921c0.886-0.04,1.531-0.375,2.222-0.921    C373.211,74.323,373.287,72.762,373.047,71.425z" fill="#424242"/>
	</g>
</g>
<g>
	<g>
		<path d="M409.108,87.596c-0.771-6.236-5.875-9.367-11.91-9.284c-5.501,0.075-10.606,3.466-14.088,8.182    c-1.401,0.13-2.533,1.697-1.998,3.2c-2.498,4.755-3.414,10.261-1.798,14.992c1.592,4.659,7.715,3.223,7.916-1.095    c0.029,0.004,0.059,0.008,0.087,0.012c0.706-5.882,1.75-16.111,9.88-16.212c3.776-0.047,2.851,2.582,2.542,5.62    c-0.35,3.433-1.562,6.923-1.644,10.367c-3.415,3.454-1.984,10.991,4.32,10.991c5.719,0,7.433-6.223,5.138-9.952    C409.231,99.144,409.711,92.463,409.108,87.596z" fill="#424242"/>
	</g>
</g>
<g>
	<g>
		<path d="M479.846,97.754c-4.965-1.445-10.166-1.017-15.125-2.359c-3.726-1.009-6.69-2.911-9.349-5.471    c0.859-0.904,1.692-1.791,2.498-2.631c2.47-2.574,4.228-5.851,6.29-8.734c1.658-2.319,2.89-4.025,2.542-6.971    c-0.101-0.855-1.401-1.516-1.862-0.504c-1.119,2.461-3.322,3.528-5.177,5.302c-2.111,2.019-3.702,4.461-5.887,6.415    c-0.882,0.789-1.756,1.6-2.625,2.419c-3.809-4.601-7.541-9.395-13.217-11.772c-10.009-4.193-24.798-0.655-22.726,12.471    c2.024,12.827,16.18,19.292,27.731,14.106c2.217-0.996,4.329-2.481,6.333-4.181c0.123,0.129,0.242,0.26,0.367,0.386    c8.167,8.283,19.274,10.183,30.208,6.727C482.364,102.159,482.454,98.512,479.846,97.754z M443.722,92.098    c-4.93,4.227-13.763,5.194-19.231,1.404c-2.679-1.855-4.075-4.721-4.676-7.893c-0.889-4.689,1.803-7.493,6.339-7.81    c9.702-0.678,14.061,6.343,19.003,13.018C444.681,91.245,444.207,91.683,443.722,92.098z" fill="#424242"/>
	</g>
</g>
<g>
	<g>
		<path d="M315.767,8.334c-0.143-0.465-0.286-0.985-0.436-1.515c0.191-0.448,0.169-0.978-0.257-1.323    c-0.06-0.049-0.123-0.086-0.184-0.132c-0.462-1.391-1.084-2.743-2.076-3.64c-0.733-2.323-4.356-2.314-4.962,0.129    c-0.004,0.012-0.006,0.024-0.009,0.036c-0.65,0.697-1.016,1.55-1.204,2.474c-0.993,0.147-1.993,0.294-2.979,0.355    c-6.045,0.373-12.045,1.802-18.085,1.921c-8.444,0.169-23.816-4.318-30.341,3.443c-6.278,7.467,4.677,13.752,10.117,16.655    c4.502,2.403,8.825,5.318,13.639,7.075c1.651,0.602,5.512,0.889,8.357,1.758c-3.53,1.77-7.064,3.292-11.123,4.301    c-4.524,1.124-8.892,2.422-13.192,4.213c-5.924,2.468-14.579,6.148-14.524,13.748c0.015,1.767,1.325,3.826,3.176,4.171    c8.482,1.583,17.351,2.619,25.701,4.653c3.471,0.846,6.471,2.138,10.11,2.227c3.362,0.082,6.58-0.605,9.805-1.377    c0.035,0.123,0.059,0.247,0.095,0.37c1.671,5.667,10.455,4.68,10.416-1.409c-0.038-5.967-2.385-11.263-3.188-17.039    c-0.671-4.841-7.376-2.983-7.848,1.063c-0.283,2.417-0.747,4.657-0.812,7.034c-3.14,0.731-6.421,1.683-9.596,1.479    c-3.245-0.21-6.385-1.55-9.638-1.932c-5.336-0.625-10.7-1.345-16.029-2.218c3.95-1.823,9.999-3.299,11.68-3.844    c4.589-1.49,9.398-2.254,13.895-4.031c4.067-1.607,7.213-4.305,10.949-6.47c1.63-0.944,2.69-3.207,2.06-5.061    c-2.174-6.389-7.613-7.726-13.652-8.92c-4.171-0.826-7.665-2.646-11.38-4.659c-2.666-1.446-9.727-3.629-11.258-6.301    c-0.788-1.378,0.187-0.986,2.252-1.34c2.744-0.469,5.59-0.343,8.356-0.235c5.365,0.207,10.666,0.784,16.025,0.124    c5.622-0.692,11.769-1.234,17.369-2.982c0.479,2.574,1.34,5.233,2.914,7.201c1.445,1.804,4.17,0.918,5.255-0.678    C316.842,15.191,316.61,11.089,315.767,8.334z" fill="#424242"/>
	</g>
</g>
<g>
	<g>
		<path d="M238.437,98.719c-1.85-0.859-3.95,1.386-2.299,2.982c2.055,1.987,4.359,3.667,6.357,5.721    c0.612,0.63,1.423,1.854,2.233,2.727c-12.037-0.666-24.198,3.289-36.272,3.356c-6.054,0.034-12.029,0.371-17.951,1.744    c-2.057,0.478-4.076,1.23-6.155,1.607c-2.657,0.481-3.47,0.038-3.96-1.773c3.402,0.403,6.994-0.101,9.835-1.279    c4.601-1.908,8.704-6.419,12.646-9.36c4.538-3.387,8.421-7.125,11.613-11.825c4.955-7.298,6.499-15.254,6.212-23.919    c-0.119-3.59-1.212-15.31-7.792-11.289c-1.519,0.928-1.839,2.695-1.111,4.236c3.682,7.797,0.811,20.531-3.562,27.317    c-4.222,6.55-10.356,10.425-16.038,15.515c-3.018,2.704-7.989,5.327-12.793,5.741c-1.029-3.982-2.74-7.742-3.222-11.867    c-0.693-5.933-1.248-11.834-2.209-17.751c-0.458-2.816-1.407-5.191-2.212-7.889c-0.896-2.996-0.205-5.828-0.687-8.837    c-0.289-1.8-1.074-3.02-1.734-4.556c3.758,4.209,8.178,8.242,13.965,5.141c2.17-1.164,1.638-4.592-0.68-5.204    c-7.269-1.918-11.09-11.772-19.034-11.588c-0.215,0.005-0.416,0.023-0.619,0.038c0.253-0.886,0.472-1.788,0.633-2.713    c0.156-0.894-0.864-1.632-1.587-0.923c-5.437,5.337-11.402,14.327-13.174,21.835c-0.621,2.621,2.215,5.052,4.663,3.579    c3.152-1.895,4.445-4.758,5.411-8.197c0.863-3.069,2.199-8.803,5.43-7.11c-0.239,1.349-0.33,2.717-0.133,4.083    c0.382,2.64,1.712,4.748,1.624,7.522c-0.097,3.035-0.641,5.526,0.042,8.545c0.905,4.001,1.38,7.796,1.777,11.895    c0.616,6.348,0.211,13.066,1.869,19.25c0.959,3.574,1.729,6.543,2.184,10.219c0.279,2.253,0.749,4.485,2.079,6.373    c5.939,8.435,20.199,0.683,27.905-0.054c12.941-1.238,25.837-2.119,38.721-3.815c-2.088,2.789-3.686,5.825-3.413,9.012    c0.176,2.052,2.5,3.184,4.093,1.696c2.836-2.648,6.612-3.767,9.289-6.932c2.264-2.677,5.462-6.131,5.621-9.835    C256.382,103.203,244.409,101.491,238.437,98.719z" fill="#424242"/>
	</g>
</g>
<g>
	<g>
		<path d="M331.498,414.413c-2.524-2.139-4.673-2.314-4.3-6.1c0.4-4.034,0.289-7.873,0.184-11.931c-0.072-2.764-4.211-2.766-4.295,0    c-0.115,3.771-0.414,7.139-1.334,10.804c-0.543,2.17-0.887,4.354-0.143,6.529c1.363,3.987,6.073,5.811,9.559,3.248    C331.939,416.398,332.37,415.154,331.498,414.413z" fill="#424242"/>
	</g>
</g>
<g>
	<g>
		<path d="M340.015,412.878c0.065-3.634,1.331-7.177,0.487-10.785c-0.696-2.966-4.843-2.082-5.053,0.684    c-0.482,6.38-5.267,15.377-0.72,21.224c0.607,0.781,2.16,1.192,3.073,0.812l0.904-0.376c1.565-0.651,2.533-2.564,1.376-4.003    C339.991,417.91,339.969,415.444,340.015,412.878z" fill="#424242"/>
	</g>
</g>
<g>
	<g>
		<path d="M112.64,215.159c-0.898-1.083-2.486,0.102-2.212,1.288c1.231,5.346-0.208,8.768-4.583,12.018    c-1.002,0.745-2.066,1.419-2.987,2.268c-0.818,0.753-1.522,2.006-2.481,2.556c-3.039,1.742-5.233-3.094-5.195-5.653    c0.06-4.063,3.588-7.608,6.091-10.464c1.289-1.47-0.871-3.638-2.155-2.154c-3.255,3.762-7.452,8.36-6.805,13.741    c0.428,3.565,3.005,8.027,7.08,7.961c1.733-0.028,2.786-1.057,3.969-2.211c1.96-1.912,4.171-3.301,6.277-5.033    C113.756,226.091,116.409,219.711,112.64,215.159z" fill="#424242"/>
	</g>
</g>
<g>
	<g>
		<path d="M173.509,183.843c-1.102-0.237-2.46,0.757-1.997,1.997c0.749,2.005,1.791,3.112,0.702,5.242    c-0.913,1.785-2.451,3.216-3.856,4.611c-1.227,1.22-2.813,3.272-4.553,3.706c-2.744,0.684-4.672-3.13-5.061-5.318    c-0.238-1.337-2.226-0.756-2.023,0.557c0.391,2.537,2.424,6.242,4.898,7.339c3.204,1.422,6.201-0.77,8.624-2.644    c2.617-2.027,5.721-4.474,6.878-7.717C178.244,188.478,177.044,184.604,173.509,183.843z" fill="#424242"/>
	</g>
</g>
<g>
	<g>
		<path d="M405.253,196.574c-0.162-0.349-0.597-0.551-0.963-0.552c-0.353-0.001-0.707-0.003-1.06-0.004    c-0.826-0.003-1.309,1.313-0.453,1.676c2.986,1.265-1.781,7.46-3.011,8.592c-2.202,2.027-4.768,3.853-7.173,5.617    c-5.095,3.741-10.664,6.715-17.18,6.526c-4.182-0.121-4.996-3.647-2.661-6.614c1.371-1.741,2.938-3.368,4.585-4.854    c4.54-4.097,11.945-9.773,18.222-10.074c1.597-0.077,1.617-2.481,0-2.497c-8.812-0.088-17.735,7.272-23.511,13.469    c-3.29,3.53-8.027,10.192-1.362,12.99c7.796,3.273,17.354-1.901,23.488-6.24C400.365,210.234,409.281,205.242,405.253,196.574z" fill="#424242"/>
	</g>
</g>
<g>
	<g>
		<path d="M280.489,273.641c-3.748,3.018-8.069,5.152-11.388,8.692c-2.929,3.125-5.02,6.937-7.709,10.256    c-2.799,3.456-8.31,8.548-5.751,13.516c3.042,5.91,9.847,3.785,14.322,1.444c7.109-3.718,10.803-9.175,10.614-17.293    c-0.037-1.625-2.152-1.765-2.697-0.366c-2.108,5.406-4.342,10.102-9.324,13.332c-3.259,2.111-10.81,3.339-8.792-2.493    c0.651-1.881,2.588-3.437,3.81-4.984c2.446-3.096,4.551-6.455,7.049-9.503c3.46-4.219,8.232-6.664,12.408-10.059    C284.832,274.721,282.274,272.204,280.489,273.641z" fill="#424242"/>
	</g>
</g>
<g>
	<g>
		<path d="M331.517,166.626c2.996-2.799,6.781-4.533,9.733-7.397c0.88-0.854-0.449-2.171-1.343-1.343    c-2.313,2.143-5.065,3.53-7.614,5.341c-1.717,1.22-3.227,2.693-4.883,3.993c-2.363,1.854-5.999,4.503-4.921,7.999    c0.889,2.881,4.047,3.387,6.663,3.176c2.249-0.182,6.865-0.63,8.562-2.244c0.499-0.474,0.566-1.481,0-1.942    c-2.348-1.913-11.665,2.85-12.283-0.505C325.015,171.444,330.005,168.04,331.517,166.626z" fill="#424242"/>
	</g>
</g>
<g>
</g>
<g>
</g>
<g>
</g>
<g>
</g>
<g>
</g>
<g>
</g>
<g>
</g>
<g>
</g>
<g>
</g>
<g>
</g>
<g>
</g>
<g>
</g>
<g>
</g>
<g>
</g>
<g>
</g>
</svg>
