<?xml version="1.0" encoding="iso-8859-1"?>
<!-- Generator: Adobe Illustrator 19.0.0, SVG Export Plug-In . SVG Version: 6.00 Build 0)  -->
<svg version="1.1" id="Layer_1" xmlns="http://www.w3.org/2000/svg" xmlns:xlink="http://www.w3.org/1999/xlink" x="0px" y="0px"
	 viewBox="0 0 473.654 473.654" style="enable-background:new 0 0 473.654 473.654;" xml:space="preserve">
<circle style="fill:#48A1AF;" cx="236.827" cy="236.827" r="236.827"/>
<path style="fill:#C8A68B;" d="M236.812,421.3c-38.993,0-75.749,9.484-108.19,26.177c32.437,16.693,69.193,26.177,108.19,26.177
	s75.753-9.484,108.193-26.177C312.565,430.78,275.809,421.3,236.812,421.3z"/>
<g>
	<circle style="fill:#545454;" cx="237.052" cy="67.574" r="5.654"/>
	<circle style="fill:#545454;" cx="237.052" cy="396.769" r="5.651"/>
	<circle style="fill:#545454;" cx="401.181" cy="232.19" r="5.651"/>
	<circle style="fill:#545454;" cx="72.439" cy="232.19" r="5.651"/>
	<circle style="fill:#545454;" cx="353.352" cy="115.964" r="5.654"/>
	<circle style="fill:#545454;" cx="120.564" cy="348.715" r="5.654"/>
	<circle style="fill:#545454;" cx="353.053" cy="348.416" r="5.651"/>
	<circle style="fill:#545454;" cx="120.564" cy="115.964" r="5.654"/>
	<circle style="fill:#545454;" cx="373.209" cy="140.017" r="5.651"/>
	<circle style="fill:#545454;" cx="100.669" cy="324.707" r="5.651"/>
	<circle style="fill:#545454;" cx="329.045" cy="368.236" r="5.654"/>
	<circle style="fill:#545454;" cx="144.594" cy="96.115" r="5.65"/>
	<circle style="fill:#545454;" cx="388.093" cy="167.324" r="5.651"/>
	<circle style="fill:#545454;" cx="85.711" cy="297.446" r="5.651"/>
	<circle style="fill:#545454;" cx="301.784" cy="383.157" r="5.654"/>
	<circle style="fill:#545454;" cx="171.833" cy="81.19" r="5.654"/>
	<circle style="fill:#545454;" cx="398.152" cy="199.581" r="5.651"/>
	<circle style="fill:#545454;" cx="75.562" cy="265.248" r="5.651"/>
	<circle style="fill:#545454;" cx="269.586" cy="393.254" r="5.651"/>
	<circle style="fill:#545454;" cx="204.031" cy="71.089" r="5.654"/>
	<circle style="fill:#545454;" cx="397.666" cy="267.118" r="5.654"/>
	<circle style="fill:#545454;" cx="75.895" cy="197.61" r="5.654"/>
	<circle style="fill:#545454;" cx="202.124" cy="392.805" r="5.654"/>
	<circle style="fill:#545454;" cx="271.53" cy="71.463" r="5.654"/>
	<circle style="fill:#545454;" cx="388.205" cy="296.773" r="5.651"/>
	<circle style="fill:#545454;" cx="85.266" cy="167.944" r="5.654"/>
	<circle style="fill:#545454;" cx="172.507" cy="383.419" r="5.654"/>
	<circle style="fill:#545454;" cx="301.148" cy="80.876" r="5.65"/>
	<circle style="fill:#545454;" cx="371.826" cy="326.315" r="5.654"/>
	<circle style="fill:#545454;" cx="101.567" cy="138.364" r="5.651"/>
	<circle style="fill:#545454;" cx="143.001" cy="367.114" r="5.651"/>
	<circle style="fill:#545454;" cx="330.69" cy="97.192" r="5.65"/>
</g>
<path style="fill:#EAEAEA;" d="M336.352,132.415c-26.648-26.644-62.081-41.322-99.764-41.322c-37.687,0-73.116,14.678-99.764,41.322
	c-26.648,26.648-41.322,62.077-41.322,99.764s14.674,73.116,41.322,99.764c26.648,26.648,62.077,41.322,99.764,41.322
	c37.684,0,73.116-14.674,99.764-41.322c26.644-26.648,41.322-62.077,41.322-99.764S362.997,159.063,336.352,132.415z
	 M236.588,371.456c-76.8,0-139.277-62.481-139.277-139.277S159.788,92.906,236.588,92.906c76.796,0,139.277,62.477,139.277,139.273
	S313.388,371.456,236.588,371.456z"/>
<path style="fill:#545454;" d="M343.865,124.898c-28.656-28.656-66.755-44.437-107.277-44.437
	c-40.526,0-78.625,15.781-107.281,44.437s-44.434,66.759-44.434,107.281c0,40.526,15.785,78.625,44.437,107.281
	c28.653,28.656,66.755,44.437,107.281,44.437c40.522,0,78.617-15.781,107.277-44.437c28.656-28.653,44.437-66.755,44.437-107.281
	C388.302,191.657,372.521,153.554,343.865,124.898z M236.588,382.536c-82.91,0-150.361-67.447-150.361-150.357
	c0-82.906,67.451-150.357,150.361-150.357c82.906,0,150.353,67.451,150.353,150.357
	C386.945,315.089,319.494,382.536,236.588,382.536z"/>
<g>
	<path style="fill:#D8D8D8;" d="M239.366,72.996c-0.34-0.165-0.74-0.019-0.897,0.322l-8.223,17.419l-10.643-16.959
		c-0.15-0.236-0.434-0.359-0.711-0.295c-0.277,0.06-0.49,0.284-0.535,0.565l-2.461,17.557l-11.574-14.869
		c-0.172-0.224-0.456-0.314-0.722-0.236c-0.262,0.075-0.46,0.303-0.486,0.572l-2.049,18.133l-13.324-14.087
		c-0.194-0.209-0.497-0.269-0.759-0.157c-0.258,0.105-0.423,0.37-0.408,0.658l0.838,17.075l-12.127-13.332
		c-0.198-0.224-0.516-0.284-0.782-0.161c-0.269,0.12-0.43,0.4-0.393,0.696l2.135,18.133l-14.27-11.746
		c-0.224-0.183-0.535-0.206-0.782-0.056c-0.247,0.146-0.374,0.438-0.314,0.718l4.095,18.814c0.071,0.322,0.352,0.539,0.666,0.539
		c0.045,0,0.093-0.004,0.146-0.015c0.363-0.082,0.595-0.441,0.516-0.811l-3.676-16.903l14.065,11.574
		c0.217,0.179,0.512,0.206,0.755,0.075c0.243-0.135,0.381-0.396,0.348-0.673l-2.083-17.707l11.978,13.171
		c0.191,0.209,0.494,0.277,0.759,0.172c0.262-0.112,0.43-0.378,0.415-0.662l-0.838-17.138l13.062,13.81
		c0.183,0.191,0.456,0.258,0.707,0.176c0.247-0.082,0.43-0.307,0.46-0.565l2.019-17.924l11.54,14.824
		c0.168,0.217,0.445,0.307,0.711,0.236c0.262-0.071,0.46-0.292,0.494-0.561l2.423-17.303l10.314,16.435
		c0.127,0.209,0.363,0.329,0.613,0.314c0.247-0.015,0.467-0.161,0.572-0.385l8.747-18.545
		C239.853,73.561,239.703,73.157,239.366,72.996z"/>
	<path style="fill:#D8D8D8;" d="M165.906,111.477l-17.183-11.346c-0.236-0.157-0.546-0.15-0.774,0.019
		c-0.232,0.165-0.333,0.456-0.254,0.729l4.955,17.475l-17.314-7.812c-0.247-0.112-0.546-0.064-0.744,0.127
		c-0.202,0.187-0.262,0.479-0.165,0.737l6.645,16.985l-18.354-6.241c-0.266-0.093-0.561-0.004-0.74,0.217
		c-0.18,0.224-0.206,0.527-0.064,0.77l8.709,14.715l-16.477-5.995c-0.273-0.101-0.583-0.015-0.763,0.213
		c-0.183,0.236-0.198,0.553-0.034,0.797l9.917,14.925l-18.137-3.743c-0.284-0.064-0.572,0.067-0.722,0.318
		c-0.146,0.243-0.12,0.561,0.067,0.782l12.397,14.73c0.131,0.161,0.325,0.239,0.52,0.239c0.153,0,0.307-0.052,0.434-0.157
		c0.288-0.239,0.322-0.669,0.079-0.954l-11.136-13.238l17.838,3.676c0.269,0.06,0.546-0.056,0.699-0.284
		c0.153-0.224,0.157-0.524,0-0.752l-9.686-14.573l16.32,5.938c0.262,0.097,0.565,0.019,0.752-0.202
		c0.183-0.224,0.209-0.535,0.064-0.782l-8.739-14.768l17.999,6.125c0.247,0.082,0.527,0.019,0.707-0.172
		c0.179-0.191,0.236-0.471,0.142-0.718l-6.574-16.794l17.124,7.726c0.239,0.108,0.52,0.071,0.718-0.105
		c0.202-0.172,0.284-0.445,0.209-0.699l-4.846-17.12l15.658,10.344c0.31,0.209,0.729,0.123,0.942-0.191
		C166.306,112.105,166.217,111.686,165.906,111.477z"/>
	<path style="fill:#D8D8D8;" d="M117.37,158.999l-21.252-0.557c-0.277-0.007-0.546,0.165-0.651,0.43
		c-0.101,0.266-0.034,0.565,0.183,0.755l13.264,11.765l-18.791,1.414c-0.277,0.022-0.516,0.206-0.598,0.471
		c-0.079,0.258,0,0.546,0.213,0.722l13.964,11.739L84.6,189.039c-0.277,0.049-0.497,0.266-0.55,0.546s0.079,0.561,0.322,0.707
		l14.693,8.754l-17.823,2.722c-0.292,0.045-0.524,0.269-0.568,0.565c-0.045,0.288,0.105,0.576,0.366,0.707l16.248,8.242
		l-18.552,5.351c-0.284,0.082-0.479,0.333-0.494,0.628c-0.011,0.295,0.168,0.557,0.438,0.662l18.219,6.799
		c0.079,0.034,0.161,0.049,0.236,0.049c0.273,0,0.535-0.172,0.636-0.441c0.131-0.355-0.049-0.74-0.396-0.871l-16.293-6.088
		l18.242-5.258c0.266-0.079,0.46-0.31,0.486-0.583c0.03-0.28-0.12-0.546-0.366-0.673l-15.901-8.063l17.595-2.689
		c0.288-0.041,0.512-0.254,0.565-0.542c0.052-0.28-0.075-0.565-0.318-0.711l-14.738-8.784l18.732-3.238
		c0.262-0.045,0.471-0.236,0.542-0.494c0.067-0.254-0.019-0.527-0.221-0.696l-13.818-11.6l18.732-1.41
		c0.273-0.022,0.505-0.202,0.595-0.46c0.082-0.254,0.011-0.546-0.194-0.722l-13.074-11.6l19.393,0.509h0.019
		c0.37,0,0.669-0.292,0.681-0.662C118.04,159.321,117.744,159.01,117.37,158.999z"/>
	<path style="fill:#D8D8D8;" d="M109.614,290.038l-17.198,1.881l12.991-12.763c0.202-0.194,0.254-0.49,0.15-0.744
		c-0.101-0.254-0.348-0.426-0.632-0.419l-17.83,0.206l14.36-10.519c0.236-0.172,0.333-0.464,0.251-0.737
		c-0.082-0.277-0.325-0.471-0.613-0.486l-17.131-0.969l15.112-11.537c0.209-0.165,0.307-0.43,0.247-0.688
		c-0.06-0.258-0.258-0.456-0.516-0.516l-17.61-3.897l15.953-9.917c0.236-0.146,0.355-0.411,0.314-0.681
		c-0.041-0.269-0.239-0.49-0.509-0.553l-16.951-4.233l17.426-8.519c0.337-0.165,0.475-0.568,0.31-0.909
		c-0.161-0.337-0.568-0.475-0.905-0.31l-19.094,9.338c-0.258,0.123-0.408,0.393-0.381,0.684c0.034,0.28,0.236,0.516,0.512,0.587
		l17.206,4.289l-16.009,9.947c-0.236,0.15-0.359,0.419-0.31,0.696c0.052,0.269,0.254,0.486,0.524,0.546l17.812,3.942l-15.403,11.765
		c-0.228,0.172-0.322,0.464-0.239,0.737c0.086,0.269,0.333,0.46,0.613,0.479l17.075,0.965l-14.543,10.654
		c-0.236,0.179-0.333,0.482-0.239,0.763c0.093,0.28,0.348,0.464,0.651,0.464l18.257-0.209l-13.186,12.95
		c-0.209,0.202-0.258,0.512-0.135,0.774c0.108,0.236,0.352,0.389,0.61,0.389c0.026,0,0.049,0,0.079-0.007l19.139-2.09
		c0.37-0.037,0.639-0.374,0.602-0.744C110.321,290.269,109.988,290,109.614,290.038z"/>
	<path style="fill:#D8D8D8;" d="M152.735,343.345c-0.213-0.314-0.632-0.393-0.946-0.187l-14.334,9.682l5.538-17.344
		c0.082-0.266,0-0.55-0.209-0.729c-0.217-0.176-0.509-0.209-0.752-0.079l-15.512,8.104l7.621-15.605
		c0.123-0.258,0.079-0.565-0.12-0.774c-0.206-0.202-0.512-0.262-0.767-0.142l-15.605,7.131l7.98-17.247
		c0.108-0.239,0.075-0.524-0.093-0.725c-0.176-0.202-0.445-0.284-0.703-0.217l-17.393,4.764l9.487-16.211
		c0.131-0.232,0.12-0.512-0.03-0.729c-0.15-0.217-0.411-0.329-0.673-0.28l-17.531,3.025l11.929-14.487
		c0.239-0.288,0.198-0.714-0.09-0.954c-0.284-0.236-0.718-0.198-0.954,0.09l-13.092,15.897c-0.187,0.221-0.213,0.527-0.067,0.767
		c0.142,0.243,0.419,0.381,0.699,0.333l17.901-3.085l-9.588,16.391c-0.138,0.239-0.12,0.538,0.045,0.755
		c0.172,0.221,0.452,0.314,0.718,0.236l17.595-4.817l-8.145,17.595c-0.116,0.254-0.064,0.557,0.138,0.763
		c0.198,0.202,0.501,0.254,0.759,0.135l15.549-7.109l-7.7,15.759c-0.127,0.262-0.079,0.58,0.138,0.785
		c0.209,0.202,0.527,0.243,0.782,0.112l15.886-8.294l-5.636,17.643c-0.082,0.277,0.011,0.576,0.239,0.748
		c0.12,0.09,0.266,0.135,0.408,0.135c0.131,0,0.262-0.041,0.381-0.116l15.957-10.774
		C152.863,344.078,152.941,343.656,152.735,343.345z"/>
	<path style="fill:#D8D8D8;" d="M214.629,370.072c-0.337-0.168-0.744-0.034-0.912,0.303l-7.76,15.56l-3.317-18.687
		c-0.052-0.277-0.262-0.494-0.535-0.546c-0.277-0.056-0.55,0.064-0.703,0.295l-9.693,14.962l-0.815-17.785
		c-0.015-0.28-0.209-0.531-0.482-0.617c-0.273-0.082-0.568,0.015-0.74,0.239l-10.288,13.735l-1.249-18.971
		c-0.019-0.262-0.187-0.49-0.43-0.587c-0.243-0.094-0.527-0.037-0.714,0.146l-12.995,12.509l0.568-18.773
		c0.011-0.277-0.146-0.531-0.393-0.639c-0.243-0.116-0.542-0.071-0.74,0.112l-12.902,11.776l2.543-19.229
		c0.052-0.374-0.213-0.711-0.58-0.759c-0.378-0.052-0.711,0.213-0.763,0.583l-2.79,21.073c-0.037,0.28,0.105,0.557,0.363,0.692
		c0.247,0.127,0.557,0.09,0.77-0.101l13.092-11.952l-0.568,18.84c-0.007,0.273,0.15,0.531,0.4,0.639
		c0.251,0.112,0.546,0.064,0.744-0.131l13.145-12.651l1.271,19.345c0.019,0.28,0.217,0.524,0.486,0.602
		c0.266,0.079,0.565-0.015,0.733-0.243l10.254-13.683l0.83,18.006c0.011,0.292,0.213,0.546,0.501,0.621
		c0.284,0.079,0.587-0.037,0.744-0.28l9.906-15.295l3.366,19.016c0.052,0.288,0.284,0.512,0.572,0.55
		c0.034,0.004,0.067,0.007,0.097,0.007c0.251,0,0.49-0.142,0.606-0.378l8.68-17.4C215.1,370.644,214.966,370.237,214.629,370.072z"
		/>
	<path style="fill:#D8D8D8;" d="M282.581,364.511c-0.004-0.374-0.307-0.673-0.677-0.673h-0.007c-0.378,0-0.677,0.307-0.673,0.684
		l0.135,17.296l-11.391-14.21c-0.172-0.221-0.46-0.307-0.722-0.224c-0.266,0.079-0.456,0.307-0.482,0.583l-1.593,17.755
		l-9.02-15.347c-0.142-0.247-0.43-0.378-0.711-0.322c-0.28,0.056-0.501,0.277-0.542,0.557l-2.696,16.944l-9.958-16.192
		c-0.135-0.228-0.389-0.352-0.651-0.322c-0.266,0.034-0.486,0.217-0.568,0.464l-5.654,17.127l-8.253-16.877
		c-0.123-0.243-0.374-0.389-0.651-0.378c-0.269,0.011-0.505,0.191-0.602,0.449l-5.916,16.439l-6.72-18.193
		c-0.131-0.355-0.527-0.535-0.871-0.404c-0.352,0.131-0.535,0.524-0.4,0.871l7.363,19.943c0.101,0.262,0.359,0.441,0.639,0.441
		c0.004,0,0.004,0,0.004,0c0.284,0,0.542-0.18,0.636-0.449l6.006-16.686l8.283,16.929c0.116,0.236,0.355,0.381,0.61,0.381
		c0.015,0,0.03,0,0.049,0c0.277-0.019,0.509-0.202,0.598-0.464l5.714-17.322l10.153,16.514c0.15,0.243,0.43,0.366,0.707,0.307
		c0.28-0.056,0.494-0.277,0.542-0.553l2.681-16.892l9.136,15.538c0.15,0.251,0.441,0.385,0.733,0.318
		c0.284-0.067,0.497-0.307,0.527-0.598l1.63-18.186l11.555,14.424c0.179,0.224,0.482,0.307,0.759,0.213
		c0.269-0.093,0.452-0.359,0.449-0.647L282.581,364.511z"/>
	<path style="fill:#D8D8D8;" d="M348.637,344.232l-9.113-16.959c-0.179-0.333-0.587-0.452-0.92-0.277
		c-0.329,0.179-0.452,0.587-0.273,0.92l8.186,15.235l-16.705-7.255c-0.251-0.108-0.546-0.06-0.744,0.135
		c-0.198,0.194-0.254,0.482-0.153,0.74l6.492,16.252l-14.753-9.158c-0.243-0.153-0.553-0.135-0.785,0.041
		c-0.224,0.183-0.307,0.482-0.221,0.752l5.531,16.248l-16.361-9.685c-0.232-0.131-0.512-0.123-0.733,0.026
		c-0.213,0.15-0.325,0.408-0.28,0.673l2.988,17.785l-15.175-11.073c-0.213-0.153-0.497-0.172-0.725-0.045
		c-0.232,0.123-0.37,0.378-0.352,0.639l1.238,17.748l-13.204-13.328c-0.262-0.266-0.692-0.266-0.957-0.004s-0.266,0.696-0.004,0.961
		l14.491,14.629c0.127,0.131,0.303,0.202,0.482,0.202c0.09,0,0.187-0.022,0.28-0.064c0.254-0.116,0.411-0.385,0.393-0.666
		l-1.264-18.118l15.343,11.193c0.224,0.161,0.52,0.172,0.755,0.03c0.236-0.146,0.355-0.415,0.31-0.692l-3.022-17.987l16.682,9.872
		c0.243,0.142,0.55,0.12,0.77-0.06c0.224-0.176,0.307-0.479,0.217-0.74l-5.508-16.192l14.898,9.252
		c0.251,0.157,0.565,0.131,0.797-0.056c0.224-0.187,0.303-0.505,0.191-0.77l-6.649-16.637l16.985,7.382
		c0.266,0.108,0.576,0.049,0.77-0.161C348.734,344.8,348.775,344.486,348.637,344.232z"/>
	<path style="fill:#D8D8D8;" d="M388.811,278.292l-16.435-10.392c-0.322-0.198-0.74-0.105-0.939,0.213
		c-0.202,0.314-0.105,0.737,0.209,0.935l14.708,9.293l-18.933,1.41c-0.277,0.022-0.512,0.209-0.598,0.479
		c-0.079,0.266,0.007,0.553,0.228,0.729l13.911,11.148l-17.774-0.98c-0.28-0.011-0.55,0.153-0.666,0.415
		c-0.108,0.262-0.045,0.568,0.165,0.759l12.625,11.623l-18.993-0.673c-0.269-0.019-0.512,0.135-0.628,0.374
		c-0.12,0.232-0.094,0.52,0.071,0.722l11.136,14.188l-18.623-2.461c-0.266-0.034-0.538,0.094-0.673,0.329
		c-0.138,0.236-0.12,0.531,0.045,0.748l10.415,14.031l-18.877-4.473c-0.366-0.086-0.729,0.138-0.815,0.505
		c-0.086,0.366,0.135,0.725,0.501,0.819l20.684,4.903c0.056,0.011,0.105,0.019,0.157,0.019c0.228,0,0.441-0.112,0.565-0.307
		c0.157-0.236,0.15-0.546-0.019-0.778l-10.572-14.237l18.683,2.468c0.277,0.034,0.542-0.101,0.681-0.34
		c0.135-0.236,0.112-0.535-0.056-0.752l-11.264-14.349l19.371,0.688c0.295,0.019,0.546-0.161,0.654-0.419
		c0.105-0.262,0.041-0.565-0.168-0.755l-12.584-11.589L383,293.583c0.284,0.007,0.565-0.161,0.669-0.434
		c0.105-0.277,0.022-0.591-0.209-0.774l-14.214-11.398l19.259-1.436c0.288-0.022,0.538-0.232,0.606-0.512
		C389.177,278.744,389.058,278.449,388.811,278.292z"/>
	<path style="fill:#D8D8D8;" d="M395.505,229.823l-16.514-4.443l16.417-7.449c0.266-0.123,0.426-0.404,0.389-0.699
		c-0.034-0.292-0.251-0.531-0.542-0.591l-17.913-3.53l15.557-9.973c0.243-0.153,0.363-0.445,0.295-0.729
		c-0.071-0.28-0.307-0.486-0.595-0.516l-19.158-1.881c-0.381-0.037-0.707,0.236-0.74,0.613c-0.037,0.37,0.236,0.703,0.606,0.733
		l17.217,1.69l-15.332,9.831c-0.236,0.15-0.352,0.423-0.299,0.699c0.052,0.269,0.262,0.482,0.538,0.542l17.494,3.448l-16.215,7.359
		c-0.258,0.116-0.415,0.389-0.393,0.677c0.022,0.284,0.221,0.527,0.501,0.595l16.566,4.458l-17.15,8.197
		c-0.239,0.112-0.389,0.359-0.389,0.617c0.004,0.266,0.157,0.505,0.396,0.613l16.439,7.423l-17.647,6.436
		c-0.258,0.093-0.434,0.329-0.445,0.602c-0.015,0.273,0.131,0.527,0.381,0.643l15.729,7.621l-18.803,4.764
		c-0.366,0.094-0.583,0.464-0.49,0.826c0.079,0.31,0.352,0.509,0.654,0.509c0.056,0,0.112,0,0.168-0.015l20.605-5.228
		c0.277-0.071,0.482-0.307,0.512-0.587c0.026-0.284-0.123-0.553-0.381-0.681l-15.964-7.726l17.711-6.462
		c0.258-0.09,0.434-0.337,0.445-0.61c0.011-0.273-0.15-0.531-0.396-0.643l-16.626-7.513l17.49-8.354
		c0.254-0.123,0.411-0.389,0.385-0.677C395.976,230.133,395.774,229.894,395.505,229.823z"/>
	<path style="fill:#D8D8D8;" d="M389.72,187.371c-0.09-0.269-0.337-0.452-0.617-0.464l-18.152-0.647l12.748-14.079
		c0.183-0.206,0.228-0.505,0.105-0.748c-0.116-0.251-0.37-0.4-0.651-0.389l-18.204,1.114l11.574-15.549
		c0.168-0.232,0.176-0.542,0.022-0.774c-0.153-0.239-0.441-0.359-0.718-0.292l-16.675,3.773l10.762-13.844
		c0.18-0.232,0.191-0.55,0.03-0.797c-0.165-0.239-0.467-0.355-0.748-0.269l-17.243,4.861l9.125-16.114
		c0.146-0.251,0.108-0.565-0.079-0.785c-0.191-0.217-0.501-0.288-0.763-0.18l-17.83,7.277c-0.348,0.138-0.512,0.538-0.37,0.883
		c0.138,0.348,0.535,0.512,0.879,0.37l16.02-6.537l-8.979,15.845c-0.135,0.239-0.112,0.538,0.056,0.752
		c0.176,0.221,0.456,0.31,0.722,0.236l16.847-4.753l-10.665,13.709c-0.176,0.228-0.191,0.542-0.037,0.782
		c0.153,0.239,0.441,0.359,0.722,0.295l16.738-3.788l-11.35,15.254c-0.161,0.213-0.179,0.497-0.056,0.725
		c0.127,0.236,0.37,0.374,0.639,0.359l17.999-1.103l-12.606,13.926c-0.18,0.198-0.228,0.479-0.123,0.718
		c0.101,0.243,0.337,0.404,0.598,0.411l17.785,0.636l-14.648,11.735c-0.295,0.232-0.34,0.662-0.105,0.954
		c0.135,0.168,0.333,0.251,0.531,0.251c0.146,0,0.299-0.049,0.423-0.15l16.076-12.868C389.72,187.94,389.806,187.644,389.72,187.371
		z"/>
	<path style="fill:#D8D8D8;" d="M349.931,119.405c-0.221-0.179-0.535-0.202-0.778-0.06l-15.265,9.016l4.42-18.32
		c0.067-0.266-0.041-0.546-0.262-0.707c-0.221-0.161-0.527-0.172-0.755-0.026l-15.456,9.689l2.722-19.195
		c0.041-0.28-0.097-0.553-0.352-0.692c-0.251-0.131-0.557-0.101-0.77,0.086l-12.842,11.297l2.879-17.797
		c0.052-0.288-0.097-0.576-0.359-0.711c-0.266-0.131-0.583-0.082-0.793,0.127l-12.834,12.935l0.602-19.3
		c0.011-0.292-0.168-0.557-0.445-0.658c-0.269-0.101-0.583-0.015-0.763,0.217L287.88,99.215l-1.586-18.287
		c-0.022-0.292-0.232-0.538-0.524-0.598c-0.284-0.071-0.576,0.056-0.729,0.307l-8.908,14.745l-4.211-18.073
		c-0.067-0.269-0.288-0.475-0.568-0.516c-0.277-0.037-0.546,0.093-0.684,0.34l-8.403,15.097l-5.894-17.842
		c-0.09-0.277-0.348-0.464-0.639-0.464h-0.004c-0.288,0-0.546,0.18-0.643,0.449l-5.856,16.394l-9.555-17.486
		c-0.179-0.329-0.595-0.449-0.924-0.266c-0.329,0.176-0.449,0.587-0.269,0.916l10.28,18.814c0.127,0.236,0.389,0.366,0.647,0.348
		c0.269-0.022,0.501-0.191,0.587-0.441l5.707-15.964l5.759,17.43c0.082,0.258,0.31,0.438,0.58,0.464
		c0.269,0.03,0.527-0.108,0.658-0.348l8.302-14.91l4.185,17.987c0.067,0.266,0.284,0.475,0.553,0.516
		c0.273,0.045,0.546-0.079,0.688-0.318l8.691-14.394l1.552,17.916c0.022,0.277,0.217,0.512,0.482,0.587
		c0.266,0.082,0.55-0.007,0.725-0.228l10.792-13.638l-0.591,18.975c-0.011,0.273,0.153,0.535,0.411,0.643
		c0.254,0.105,0.546,0.056,0.748-0.146l12.55-12.658l-2.842,17.572c-0.049,0.28,0.086,0.561,0.337,0.703
		c0.251,0.142,0.561,0.105,0.782-0.079l12.883-11.338l-2.67,18.825c-0.037,0.262,0.079,0.524,0.303,0.666
		c0.224,0.142,0.509,0.146,0.729,0.007l15.28-9.585l-4.405,18.264c-0.071,0.266,0.037,0.546,0.251,0.707
		c0.221,0.161,0.516,0.176,0.752,0.037l15.044-8.881l-6.436,18.301c-0.123,0.355,0.064,0.737,0.415,0.86
		c0.075,0.03,0.153,0.041,0.224,0.041c0.28,0,0.546-0.176,0.643-0.452l7.053-20.055C350.23,119.883,350.151,119.588,349.931,119.405
		z"/>
</g>
<g>
	<path style="fill:#EAEAEA;" d="M305.647,88.688c-0.254-0.138-0.568-0.097-0.782,0.093l-13.672,12.43l1.238-18.215
		c0.022-0.292-0.15-0.561-0.423-0.677c-0.273-0.105-0.587-0.026-0.774,0.198l-11.458,13.919V79.339c0-0.288-0.176-0.538-0.445-0.639
		c-0.258-0.097-0.565-0.019-0.748,0.198l-12.617,14.719l-2.932-18.002c-0.041-0.269-0.243-0.49-0.512-0.55
		c-0.273-0.064-0.55,0.045-0.707,0.269l-10.837,15.418l-3.317-17.419c-0.052-0.277-0.273-0.494-0.553-0.538
		c-0.288-0.052-0.561,0.086-0.703,0.337l-9.798,17.46l-9.061-16.996c-0.179-0.329-0.587-0.452-0.92-0.28
		c-0.329,0.176-0.456,0.587-0.273,0.92l9.644,18.088c0.112,0.221,0.344,0.359,0.591,0.359c0.236,0.011,0.479-0.127,0.595-0.344
		l9.495-16.918l3.265,17.168c0.056,0.262,0.258,0.475,0.527,0.531c0.269,0.064,0.546-0.049,0.699-0.269l10.8-15.366l2.898,17.8
		c0.041,0.258,0.232,0.471,0.486,0.546c0.254,0.075,0.531-0.015,0.699-0.213l12.378-14.431v17.157c0,0.284,0.18,0.546,0.445,0.639
		c0.269,0.093,0.568,0.015,0.755-0.209l11.316-13.743l-1.215,17.789c-0.019,0.273,0.135,0.539,0.381,0.658
		c0.251,0.116,0.546,0.079,0.755-0.108l13.477-12.251l-2.846,17.064c-0.064,0.374,0.187,0.718,0.557,0.785
		c0.037,0.004,0.075,0.007,0.108,0.007c0.329,0,0.613-0.236,0.669-0.568l3.167-18.99C306.043,89.11,305.905,88.83,305.647,88.688z"
		/>
	<path style="fill:#EAEAEA;" d="M364.911,137.983c-0.161-0.239-0.456-0.359-0.733-0.28l-17.931,4.622l9.173-15.388
		c0.153-0.247,0.123-0.568-0.071-0.789c-0.194-0.224-0.509-0.299-0.778-0.18l-16.159,6.791l7.973-15.119
		c0.135-0.254,0.093-0.557-0.09-0.77c-0.194-0.213-0.494-0.284-0.759-0.18l-18.025,7.131l5.808-17.288
		c0.09-0.262,0.011-0.553-0.194-0.733c-0.217-0.179-0.512-0.217-0.755-0.086l-16.907,8.65l4.087-17.692
		c0.067-0.277-0.052-0.565-0.284-0.722c-0.236-0.153-0.546-0.15-0.774,0.022l-16.604,12.18c-0.307,0.221-0.37,0.639-0.146,0.946
		c0.221,0.299,0.643,0.366,0.946,0.146l15.134-11.099l-4.005,17.337c-0.06,0.258,0.037,0.527,0.243,0.688
		c0.209,0.165,0.49,0.191,0.722,0.075l16.723-8.56l-5.736,17.097c-0.086,0.251-0.015,0.527,0.176,0.711
		c0.191,0.18,0.471,0.236,0.718,0.135l17.673-6.997l-8.003,15.179c-0.135,0.251-0.09,0.565,0.101,0.774
		c0.191,0.213,0.497,0.28,0.759,0.168l16.005-6.731l-8.96,15.033c-0.138,0.236-0.12,0.535,0.041,0.755
		c0.168,0.221,0.449,0.318,0.714,0.247l17.632-4.551l-10.475,13.769c-0.228,0.295-0.168,0.722,0.127,0.95
		c0.123,0.093,0.269,0.138,0.408,0.138c0.206,0,0.408-0.09,0.542-0.266l11.66-15.325
		C365.061,138.54,365.072,138.226,364.911,137.983z"/>
	<path style="fill:#EAEAEA;" d="M394.11,208.911l-18.791-4.443l15.822-9.024c0.258-0.15,0.389-0.441,0.329-0.729
		c-0.064-0.288-0.303-0.505-0.595-0.535l-17.935-1.847l14.248-9.461c0.236-0.161,0.352-0.445,0.284-0.718
		c-0.067-0.277-0.295-0.486-0.576-0.524l-19.244-2.36l13.373-12.4c0.202-0.191,0.269-0.482,0.176-0.737
		c-0.097-0.258-0.344-0.434-0.621-0.438l-18.84-0.494l12.673-12.4c0.206-0.202,0.262-0.509,0.146-0.767
		c-0.116-0.258-0.393-0.419-0.669-0.396l-21.2,1.597c-0.374,0.03-0.654,0.359-0.625,0.729c0.026,0.374,0.355,0.651,0.725,0.625
		l19.345-1.458l-12.49,12.225c-0.194,0.194-0.254,0.479-0.153,0.729c0.097,0.254,0.337,0.426,0.61,0.434l18.776,0.49l-13.223,12.262
		c-0.191,0.183-0.262,0.452-0.183,0.703c0.079,0.251,0.299,0.43,0.557,0.467l18.874,2.315l-14.293,9.499
		c-0.236,0.153-0.348,0.449-0.28,0.722c0.067,0.28,0.303,0.486,0.591,0.516l17.707,1.821l-15.489,8.833
		c-0.239,0.138-0.374,0.408-0.333,0.688c0.037,0.273,0.239,0.501,0.516,0.561l18.47,4.36l-15.972,6.877
		c-0.344,0.146-0.501,0.546-0.355,0.89c0.108,0.254,0.363,0.408,0.621,0.408c0.09,0,0.183-0.019,0.269-0.06l17.86-7.685
		c0.269-0.116,0.43-0.393,0.408-0.684C394.604,209.218,394.394,208.979,394.11,208.911z"/>
	<path style="fill:#EAEAEA;" d="M395.897,225.261l-19.532-8.384c-0.344-0.15-0.74,0.007-0.89,0.352
		c-0.15,0.348,0.011,0.744,0.355,0.894l17.827,7.655l-16.731,5.063c-0.258,0.079-0.449,0.303-0.479,0.572
		c-0.03,0.273,0.108,0.535,0.348,0.666l16.424,9.125l-17.4,4.753c-0.254,0.067-0.445,0.277-0.49,0.542
		c-0.045,0.254,0.071,0.527,0.284,0.673l15.658,10.785l-17.064,1.806c-0.284,0.034-0.52,0.236-0.587,0.512
		c-0.067,0.277,0.049,0.565,0.288,0.725l14.854,9.809l-17.819,0.666c-0.273,0.011-0.516,0.187-0.61,0.449
		c-0.093,0.262-0.022,0.55,0.191,0.733l13.601,12.112l-17.269-1.028c-0.396-0.019-0.699,0.258-0.714,0.636
		c-0.022,0.37,0.258,0.696,0.636,0.714l19.221,1.152h0.041c0.273,0,0.524-0.165,0.628-0.415c0.105-0.266,0.041-0.572-0.179-0.767
		l-13.799-12.292l18.245-0.681c0.295-0.015,0.546-0.217,0.628-0.497c0.079-0.284-0.037-0.587-0.28-0.748l-15.041-9.929l17.004-1.799
		c0.284-0.034,0.52-0.236,0.587-0.509c0.071-0.277-0.041-0.561-0.269-0.725l-15.968-10.998l17.598-4.805
		c0.262-0.075,0.456-0.299,0.494-0.572c0.034-0.273-0.105-0.542-0.348-0.677l-16.473-9.151l16.974-5.131
		c0.269-0.082,0.46-0.329,0.482-0.61C396.32,225.642,396.159,225.373,395.897,225.261z"/>
	<path style="fill:#EAEAEA;" d="M380.767,299.36l-13.859-15.231c-0.251-0.277-0.681-0.295-0.961-0.045
		c-0.273,0.247-0.295,0.681-0.045,0.957l12.629,13.881l-17.662-2.161c-0.258-0.026-0.524,0.094-0.658,0.314
		c-0.138,0.228-0.135,0.512,0.007,0.729l10.269,15.732l-17.61-3.908c-0.251-0.064-0.524,0.037-0.684,0.243
		c-0.161,0.213-0.187,0.494-0.064,0.729l8.814,16.839l-15.931-6.357c-0.273-0.108-0.576-0.037-0.767,0.18
		c-0.187,0.217-0.221,0.527-0.082,0.778l8.38,15.209l-15.893-7.33c-0.251-0.116-0.546-0.075-0.744,0.116
		c-0.202,0.187-0.269,0.479-0.176,0.733l6.383,17.056l-14.797-8.96c-0.318-0.198-0.733-0.094-0.927,0.228
		c-0.198,0.322-0.093,0.737,0.232,0.931l16.462,9.981c0.105,0.067,0.232,0.097,0.348,0.097c0.157,0,0.314-0.056,0.438-0.157
		c0.224-0.183,0.303-0.486,0.202-0.759l-6.488-17.344l16.271,7.505c0.266,0.12,0.58,0.06,0.782-0.153
		c0.206-0.217,0.239-0.538,0.097-0.789l-8.463-15.358l15.878,6.335c0.262,0.108,0.561,0.041,0.755-0.172
		c0.191-0.213,0.228-0.52,0.093-0.77l-8.986-17.172l17.808,3.949c0.266,0.064,0.546-0.045,0.703-0.273
		c0.153-0.228,0.165-0.524,0.011-0.755l-10.381-15.904l18.025,2.206c0.277,0.034,0.553-0.108,0.688-0.359
		C380.999,299.876,380.958,299.57,380.767,299.36z"/>
	<path style="fill:#EAEAEA;" d="M327.422,339.4c-0.067-0.374-0.423-0.617-0.789-0.546c-0.37,0.067-0.613,0.419-0.546,0.793
		l3.485,19.083l-13.47-11.14c-0.213-0.168-0.505-0.202-0.744-0.079c-0.239,0.127-0.385,0.389-0.366,0.658l1.492,18.728
		l-13.593-11.858c-0.202-0.176-0.482-0.221-0.722-0.112c-0.239,0.108-0.393,0.348-0.4,0.61l-0.314,19.012l-10.949-13.212
		c-0.183-0.224-0.486-0.307-0.759-0.206c-0.266,0.097-0.441,0.352-0.441,0.639l0.052,17.804l-10.411-14.472
		c-0.165-0.224-0.449-0.333-0.718-0.258c-0.269,0.067-0.467,0.295-0.509,0.568l-2.393,18.832l-8.515-15.164
		c-0.183-0.329-0.598-0.445-0.924-0.262c-0.329,0.187-0.441,0.595-0.258,0.92l9.525,16.955c0.12,0.217,0.348,0.348,0.591,0.348
		c0.041,0,0.082-0.004,0.131-0.011c0.284-0.056,0.505-0.292,0.542-0.58l2.434-19.158l10.643,14.79
		c0.172,0.236,0.479,0.34,0.759,0.243c0.28-0.09,0.471-0.352,0.471-0.647l-0.06-18.025l10.912,13.167
		c0.183,0.221,0.482,0.303,0.752,0.209c0.262-0.093,0.445-0.348,0.449-0.628l0.325-19.382l13.743,11.989
		c0.213,0.183,0.509,0.221,0.748,0.097c0.251-0.127,0.396-0.389,0.374-0.662l-1.488-18.791l13.664,11.297
		c0.221,0.18,0.527,0.209,0.778,0.067c0.239-0.146,0.374-0.426,0.322-0.707L327.422,339.4z"/>
	<path style="fill:#EAEAEA;" d="M266.134,368.408c-0.359-0.108-0.737,0.086-0.849,0.445l-5.823,18.503l-6.72-16.129
		c-0.105-0.254-0.352-0.415-0.621-0.419c-0.266,0.004-0.52,0.161-0.632,0.411l-7.419,17.254l-6.484-16.828
		c-0.09-0.247-0.322-0.415-0.583-0.434c-0.262-0.019-0.512,0.12-0.639,0.352l-9.151,16.664l-3.515-16.794
		c-0.06-0.277-0.292-0.49-0.572-0.531c-0.277-0.041-0.557,0.101-0.699,0.355l-8.257,15.774l-2.457-17.662
		c-0.041-0.269-0.236-0.501-0.505-0.565s-0.553,0.041-0.714,0.262l-10.676,14.753l-0.714-17.284
		c-0.015-0.374-0.344-0.673-0.703-0.651c-0.378,0.019-0.666,0.333-0.651,0.703l0.797,19.24c0.007,0.292,0.206,0.538,0.479,0.625
		c0.277,0.082,0.576-0.022,0.744-0.251l10.837-14.973l2.517,18.081c0.045,0.292,0.266,0.527,0.557,0.576
		c0.288,0.056,0.576-0.09,0.711-0.352l8.362-15.975l3.511,16.746c0.056,0.277,0.28,0.49,0.557,0.531
		c0.284,0.049,0.557-0.094,0.696-0.344l9.334-16.993l6.559,17.023c0.093,0.258,0.344,0.426,0.621,0.438c0,0,0.004,0,0.015,0
		c0.266,0,0.512-0.165,0.621-0.411l7.442-17.314l6.817,16.368c0.108,0.258,0.381,0.43,0.658,0.415
		c0.284-0.015,0.535-0.202,0.617-0.475l6.38-20.28C266.688,368.898,266.493,368.52,266.134,368.408z"/>
	<path style="fill:#EAEAEA;" d="M198.661,365.671c-0.277-0.247-0.703-0.228-0.957,0.056l-12.539,13.96l0.366-17.789
		c0.011-0.266-0.138-0.509-0.378-0.621c-0.236-0.116-0.52-0.086-0.722,0.079l-14.618,11.798l2.117-17.913
		c0.03-0.258-0.093-0.52-0.314-0.654c-0.232-0.138-0.516-0.131-0.733,0.007l-15.867,10.475l4.723-16.495
		c0.079-0.273-0.022-0.568-0.254-0.74c-0.232-0.165-0.546-0.165-0.778-0.004l-14.293,9.872l5.692-16.551
		c0.086-0.258,0.011-0.55-0.194-0.729c-0.209-0.183-0.505-0.224-0.748-0.097l-16.327,8.066l7.431-15.62
		c0.161-0.34,0.015-0.744-0.322-0.905c-0.337-0.161-0.744-0.019-0.901,0.322l-8.272,17.385c-0.127,0.258-0.071,0.572,0.135,0.774
		c0.206,0.206,0.524,0.254,0.778,0.123l16.6-8.201l-5.826,16.944c-0.097,0.277,0,0.583,0.232,0.759
		c0.236,0.179,0.553,0.183,0.797,0.019l14.427-9.97l-4.708,16.439c-0.079,0.269,0.022,0.565,0.247,0.729
		c0.232,0.172,0.542,0.176,0.774,0.022l16.181-10.677l-2.135,18.111c-0.034,0.277,0.101,0.546,0.344,0.681
		c0.239,0.131,0.542,0.105,0.755-0.071l14.771-11.929l-0.374,18.156c-0.007,0.284,0.165,0.542,0.426,0.647
		c0.079,0.034,0.165,0.049,0.247,0.049c0.191,0,0.374-0.079,0.509-0.228l13.758-15.325
		C198.964,366.351,198.942,365.917,198.661,365.671z"/>
	<path style="fill:#EAEAEA;" d="M139.366,331.614l-18.631,5.385l9.715-14.517c0.153-0.232,0.153-0.524,0.007-0.752
		c-0.153-0.232-0.419-0.344-0.692-0.295l-18.481,3.369l10.43-14.719c0.15-0.217,0.165-0.497,0.034-0.725
		c-0.131-0.228-0.385-0.359-0.647-0.34l-18.941,1.601l12.041-12.228c0.206-0.202,0.251-0.509,0.127-0.767
		c-0.123-0.254-0.396-0.408-0.681-0.381l-17.703,1.847l13.343-11.821c0.213-0.187,0.284-0.479,0.187-0.74
		c-0.09-0.258-0.34-0.438-0.621-0.445l-18.975-0.482l14.229-10.003c0.307-0.217,0.381-0.639,0.165-0.946
		c-0.217-0.303-0.639-0.381-0.946-0.165l-15.904,11.185c-0.239,0.168-0.344,0.471-0.258,0.752s0.34,0.475,0.628,0.482l19.311,0.49
		l-13.638,12.079c-0.224,0.194-0.292,0.512-0.172,0.778c0.116,0.273,0.396,0.43,0.692,0.4l17.928-1.87l-12,12.184
		c-0.202,0.206-0.251,0.512-0.131,0.767c0.12,0.254,0.393,0.404,0.673,0.389l19.319-1.638l-10.546,14.88
		c-0.157,0.224-0.172,0.524-0.019,0.759c0.146,0.232,0.415,0.352,0.696,0.303l18.541-3.384l-9.865,14.738
		c-0.157,0.236-0.15,0.546,0.019,0.774c0.131,0.18,0.337,0.28,0.546,0.28c0.064,0,0.123-0.011,0.187-0.03l20.422-5.909
		c0.363-0.101,0.565-0.479,0.464-0.838C140.103,331.715,139.729,331.506,139.366,331.614z"/>
	<path style="fill:#EAEAEA;" d="M103.796,274.152l-19.016-3.841l15.336-8.384c0.239-0.127,0.381-0.389,0.352-0.658
		c-0.03-0.273-0.217-0.501-0.475-0.583l-17.942-5.561l16.054-8.22c0.236-0.12,0.378-0.366,0.37-0.628
		c-0.015-0.262-0.172-0.501-0.415-0.598l-17.531-7.348l16.327-5.265c0.269-0.086,0.46-0.337,0.471-0.625
		c0.007-0.28-0.161-0.546-0.426-0.651l-16.551-6.555l17.299-4.304c0.266-0.067,0.471-0.288,0.509-0.565
		c0.041-0.269-0.093-0.546-0.337-0.681l-15.796-9.065l17.116-2.532c0.37-0.056,0.625-0.4,0.568-0.77
		c-0.056-0.374-0.396-0.625-0.77-0.572l-19.046,2.82c-0.288,0.041-0.516,0.258-0.568,0.546c-0.052,0.28,0.079,0.565,0.329,0.711
		l16.028,9.199l-17.714,4.409c-0.288,0.071-0.494,0.318-0.516,0.617c-0.019,0.292,0.153,0.565,0.426,0.673l16.757,6.638
		l-16.275,5.247c-0.269,0.082-0.456,0.333-0.471,0.613c-0.011,0.284,0.157,0.546,0.415,0.654l17.879,7.494l-16.237,8.313
		c-0.243,0.127-0.389,0.389-0.37,0.666s0.217,0.509,0.475,0.587l18.002,5.579l-15.564,8.504c-0.243,0.135-0.389,0.411-0.344,0.696
		c0.045,0.284,0.258,0.512,0.538,0.565l20.837,4.207c0.049,0.011,0.086,0.015,0.135,0.015c0.314,0,0.598-0.224,0.666-0.546
		C104.398,274.586,104.158,274.227,103.796,274.152z"/>
	<path style="fill:#EAEAEA;" d="M126.966,144.751l-18.156-6.395c-0.273-0.093-0.576-0.007-0.755,0.217
		c-0.183,0.232-0.198,0.546-0.045,0.789l9.902,15.646L100.449,151c-0.28-0.067-0.58,0.056-0.729,0.307
		c-0.153,0.251-0.123,0.572,0.067,0.797l11.428,13.298l-16.839-2.951c-0.28-0.049-0.557,0.079-0.703,0.325
		c-0.142,0.247-0.12,0.553,0.06,0.774l12.326,14.966l-18.242-0.221c-0.273-0.007-0.527,0.161-0.632,0.415
		c-0.105,0.254-0.052,0.546,0.142,0.744l13.425,13.433l-18.1,1.541c-0.28,0.022-0.52,0.221-0.591,0.494
		c-0.079,0.269,0.026,0.565,0.251,0.729l16.69,12.071c0.116,0.082,0.254,0.127,0.393,0.127c0.213,0,0.415-0.093,0.55-0.277
		c0.221-0.303,0.146-0.729-0.153-0.95l-15.201-11.006l17.726-1.503c0.266-0.022,0.49-0.194,0.58-0.441
		c0.09-0.247,0.03-0.527-0.157-0.714l-13.275-13.287l18.032,0.213c0.269,0,0.505-0.142,0.621-0.385
		c0.112-0.236,0.079-0.524-0.086-0.725l-12.083-14.678l16.903,2.965c0.284,0.052,0.561-0.086,0.703-0.333
		c0.142-0.251,0.112-0.561-0.075-0.782l-11.32-13.167l17.06,3.919c0.269,0.064,0.546-0.049,0.707-0.269
		c0.153-0.228,0.165-0.524,0.019-0.755l-9.742-15.385l16.319,5.744c0.352,0.127,0.733-0.064,0.86-0.415
		C127.508,145.264,127.321,144.875,126.966,144.751z"/>
	<path style="fill:#EAEAEA;" d="M227.239,73.296c-0.34-0.161-0.748-0.022-0.909,0.314l-8.687,17.935l-6.656-16.091
		c-0.108-0.266-0.381-0.438-0.666-0.415c-0.292,0.019-0.542,0.221-0.613,0.494l-5.015,18.107l-9.128-14.663
		c-0.15-0.236-0.43-0.363-0.703-0.307c-0.273,0.052-0.49,0.269-0.542,0.546l-3.321,18.257l-9.618-14.289
		c-0.165-0.243-0.467-0.359-0.748-0.277s-0.482,0.337-0.494,0.628l-0.684,18.343l-11.671-13.354
		c-0.194-0.221-0.505-0.292-0.774-0.18c-0.269,0.112-0.438,0.389-0.411,0.681l1.544,19.248L154.691,95.98
		c-0.217-0.198-0.535-0.236-0.797-0.086c-0.251,0.15-0.385,0.441-0.325,0.729l3.751,17.636l-13.376-10.658
		c-0.224-0.176-0.535-0.198-0.774-0.049c-0.243,0.146-0.374,0.426-0.314,0.707l3.654,19.038l-15.908-8.923
		c-0.239-0.135-0.542-0.108-0.755,0.064c-0.217,0.168-0.303,0.456-0.228,0.718l5.31,18.085l-15.688-8.257
		c-0.251-0.131-0.561-0.093-0.774,0.097c-0.213,0.191-0.277,0.497-0.168,0.759l8.021,19.685c0.108,0.266,0.363,0.423,0.628,0.423
		c0.086,0,0.176-0.019,0.258-0.056c0.348-0.138,0.516-0.535,0.374-0.879l-7.322-17.965l15.463,8.137
		c0.239,0.127,0.535,0.097,0.744-0.075c0.209-0.176,0.299-0.456,0.224-0.718l-5.295-18.025l15.729,8.822
		c0.232,0.127,0.516,0.112,0.729-0.041c0.213-0.153,0.318-0.415,0.266-0.681l-3.586-18.668l13.429,10.684
		c0.224,0.183,0.535,0.198,0.778,0.049c0.243-0.15,0.366-0.438,0.303-0.714l-3.698-17.415l13.163,12.026
		c0.202,0.191,0.505,0.236,0.755,0.112c0.243-0.123,0.396-0.389,0.378-0.666l-1.518-18.922l11.451,13.096
		c0.183,0.209,0.471,0.288,0.733,0.191c0.262-0.09,0.441-0.333,0.452-0.613l0.673-17.969l9.386,13.945
		c0.153,0.232,0.426,0.344,0.703,0.284c0.269-0.056,0.482-0.273,0.531-0.546l3.302-18.163l9.02,14.483
		c0.142,0.232,0.408,0.355,0.677,0.314c0.269-0.041,0.486-0.232,0.553-0.49l4.903-17.692l6.477,15.661
		c0.105,0.247,0.344,0.411,0.606,0.419c0.266,0.011,0.516-0.138,0.632-0.385l9.341-19.289
		C227.714,73.868,227.576,73.46,227.239,73.296z"/>
	<path style="fill:#EAEAEA;" d="M383.875,169.956c-8.048-19.034-19.573-36.128-34.255-50.81
		c-14.678-14.685-31.775-26.207-50.81-34.258c-19.708-8.336-40.642-12.561-62.223-12.561c-21.581,0-42.515,4.226-62.227,12.561
		c-19.031,8.051-36.128,19.573-50.81,34.258c-14.682,14.682-26.207,31.775-34.258,50.81c-8.336,19.711-12.561,40.642-12.561,62.223
		c0,21.581,4.229,42.515,12.561,62.223c8.051,19.038,19.577,36.132,34.258,50.813s31.779,26.203,50.81,34.258
		c19.711,8.336,40.645,12.561,62.227,12.561s42.515-4.229,62.223-12.561c19.034-8.055,36.132-19.577,50.81-34.258
		c14.682-14.682,26.207-31.775,34.255-50.813c8.336-19.708,12.561-40.638,12.561-62.223
		C396.44,210.598,392.214,189.667,383.875,169.956z M236.588,388.411c-86.149,0-156.236-70.083-156.236-156.232
		S150.439,75.947,236.588,75.947c86.145,0,156.232,70.083,156.232,156.232S322.736,388.411,236.588,388.411z"/>
</g>
<g>
	<path style="fill:#CECECE;" d="M246.27,92.513c-0.176-0.015-0.329,0.12-0.34,0.295l-19.326,279.455
		c-0.015,0.179,0.12,0.333,0.295,0.344h0.026c0.168,0,0.307-0.127,0.318-0.295l19.326-279.455
		C246.58,92.674,246.453,92.525,246.27,92.513z"/>
	<path style="fill:#CECECE;" d="M376.339,241.902L96.885,222.576c-0.172-0.007-0.329,0.12-0.34,0.299
		c-0.015,0.176,0.12,0.329,0.295,0.34l279.455,19.326h0.026c0.168,0,0.307-0.127,0.322-0.295
		C376.65,242.07,376.515,241.913,376.339,241.902z"/>
	<path style="fill:#CECECE;" d="M342.014,140.35L130.747,324.288c-0.135,0.116-0.15,0.318-0.034,0.452
		c0.067,0.071,0.153,0.108,0.239,0.108c0.075,0,0.15-0.022,0.209-0.079l211.271-183.938c0.131-0.116,0.15-0.318,0.03-0.452
		C342.347,140.249,342.145,140.234,342.014,140.35z"/>
	<path style="fill:#CECECE;" d="M144.856,126.715c-0.112-0.131-0.318-0.146-0.445-0.03c-0.135,0.112-0.15,0.318-0.034,0.452
		L328.32,338.405c0.064,0.075,0.15,0.108,0.239,0.108c0.075,0,0.146-0.026,0.209-0.079c0.135-0.112,0.15-0.314,0.034-0.449
		L144.856,126.715z"/>
	<path style="fill:#CECECE;" d="M362.918,293.044L110.534,171.501c-0.165-0.079-0.352-0.011-0.426,0.15
		c-0.079,0.161-0.011,0.352,0.15,0.43l252.38,121.54c0.045,0.019,0.09,0.026,0.138,0.026c0.116,0,0.236-0.064,0.288-0.176
		C363.143,293.306,363.079,293.119,362.918,293.044z"/>
	<path style="fill:#CECECE;" d="M297.498,106.081c-0.165-0.079-0.352-0.011-0.426,0.146l-121.54,252.388
		c-0.079,0.157-0.007,0.348,0.15,0.426c0.049,0.022,0.094,0.034,0.135,0.034c0.12,0,0.236-0.071,0.292-0.187l121.536-252.38
		C297.719,106.346,297.659,106.159,297.498,106.081z"/>
	<path style="fill:#CECECE;" d="M192.637,99.574c-0.06-0.168-0.236-0.254-0.404-0.206c-0.168,0.06-0.258,0.236-0.202,0.408
		l88.512,265.768c0.045,0.135,0.172,0.221,0.303,0.221c0.037,0,0.067-0.007,0.101-0.019c0.168-0.056,0.258-0.236,0.206-0.4
		L192.637,99.574z"/>
	<path style="fill:#CECECE;" d="M369.369,187.996l-265.764,88.519c-0.172,0.056-0.258,0.236-0.209,0.4
		c0.049,0.135,0.176,0.221,0.303,0.221c0.037,0,0.075,0,0.105-0.019l265.768-88.512c0.168-0.056,0.258-0.236,0.202-0.404
		C369.72,188.033,369.541,187.944,369.369,187.996z"/>
	<path style="fill:#CECECE;" d="M265.749,95.243c-0.176-0.037-0.344,0.071-0.381,0.243L207.176,369.5
		c-0.037,0.172,0.075,0.344,0.247,0.378c0.022,0.004,0.045,0.007,0.067,0.007c0.146,0,0.28-0.097,0.31-0.254l58.195-274.014
		C266.033,95.445,265.921,95.277,265.749,95.243z"/>
	<path style="fill:#CECECE;" d="M373.662,261.344L99.648,203.152c-0.176-0.037-0.344,0.075-0.381,0.247
		c-0.037,0.172,0.075,0.344,0.243,0.381l274.014,58.188c0.022,0.004,0.045,0.007,0.067,0.007c0.146,0,0.28-0.101,0.314-0.251
		C373.942,261.546,373.834,261.374,373.662,261.344z"/>
	<path style="fill:#CECECE;" d="M353.865,155.989L118.967,308.601c-0.15,0.093-0.191,0.292-0.097,0.441
		c0.067,0.093,0.168,0.146,0.273,0.146c0.06,0,0.116-0.019,0.172-0.056l234.901-152.608c0.15-0.097,0.191-0.295,0.09-0.445
		C354.212,155.933,354.014,155.888,353.865,155.989z"/>
	<path style="fill:#CECECE;" d="M160.551,114.932c-0.094-0.146-0.292-0.191-0.441-0.093c-0.146,0.093-0.187,0.295-0.094,0.441
		l152.616,234.905c0.064,0.09,0.165,0.146,0.269,0.146c0.056,0,0.12-0.019,0.172-0.056c0.15-0.094,0.191-0.292,0.09-0.441
		L160.551,114.932z"/>
	<path style="fill:#CECECE;" d="M353.229,310.1L120.306,154.486c-0.146-0.097-0.348-0.06-0.445,0.086
		c-0.093,0.146-0.06,0.348,0.09,0.441L352.87,310.628c0.056,0.037,0.116,0.06,0.18,0.06c0.101,0,0.206-0.052,0.266-0.146
		C353.416,310.4,353.375,310.198,353.229,310.1z"/>
	<path style="fill:#CECECE;" d="M314.573,115.83c-0.146-0.097-0.348-0.06-0.441,0.086L158.517,348.842
		c-0.097,0.15-0.06,0.348,0.09,0.445c0.052,0.037,0.112,0.056,0.176,0.056c0.097,0,0.206-0.052,0.266-0.142l155.611-232.927
		C314.76,116.129,314.719,115.927,314.573,115.83z"/>
	<path style="fill:#CECECE;" d="M211.649,94.738c-0.03-0.179-0.198-0.292-0.37-0.258c-0.176,0.034-0.292,0.198-0.258,0.37
		l50.507,275.539c0.03,0.15,0.165,0.258,0.314,0.258c0.022,0,0.041-0.004,0.06-0.007c0.176-0.026,0.292-0.198,0.258-0.37
		L211.649,94.738z"/>
	<path style="fill:#CECECE;" d="M374.298,206.989L98.766,257.496c-0.176,0.034-0.292,0.198-0.258,0.378
		c0.03,0.15,0.165,0.262,0.314,0.262c0.022,0,0.041,0,0.064-0.011l275.532-50.503c0.176-0.034,0.284-0.202,0.254-0.378
		C374.638,207.075,374.466,206.959,374.298,206.989z"/>
	<path style="fill:#CECECE;" d="M283.213,100.146c-0.168-0.064-0.352,0.03-0.411,0.194l-93.033,264.223
		c-0.06,0.168,0.026,0.352,0.198,0.408c0.037,0.011,0.071,0.019,0.105,0.019c0.131,0,0.254-0.082,0.299-0.217l93.037-264.216
		C283.471,100.389,283.377,100.206,283.213,100.146z"/>
	<path style="fill:#CECECE;" d="M368.808,278.778l-264.223-93.037c-0.168-0.06-0.352,0.026-0.408,0.198
		c-0.056,0.165,0.03,0.352,0.198,0.404l264.22,93.037c0.037,0.015,0.075,0.022,0.105,0.022c0.131,0,0.254-0.079,0.303-0.221
		C369.059,279.017,368.973,278.834,368.808,278.778z"/>
	<path style="fill:#CECECE;" d="M363.187,171.897c-0.079-0.157-0.266-0.224-0.423-0.146L110.138,292.797
		c-0.157,0.075-0.228,0.262-0.146,0.426c0.056,0.112,0.165,0.179,0.288,0.179c0.041,0,0.09-0.011,0.138-0.034l252.616-121.043
		C363.195,172.252,363.266,172.058,363.187,171.897z"/>
	<path style="fill:#CECECE;" d="M297.401,358.734L176.355,106.114c-0.079-0.161-0.269-0.232-0.426-0.153
		c-0.161,0.079-0.228,0.266-0.153,0.426l121.05,252.623c0.052,0.112,0.168,0.18,0.288,0.18c0.049,0,0.09-0.007,0.135-0.03
		C297.412,359.081,297.479,358.891,297.401,358.734z"/>
	<path style="fill:#CECECE;" d="M342.253,324.49L131.341,140.144c-0.131-0.116-0.337-0.101-0.452,0.03
		c-0.108,0.131-0.101,0.337,0.034,0.449l210.908,184.354c0.064,0.052,0.135,0.079,0.213,0.079c0.09,0,0.18-0.037,0.239-0.108
		C342.399,324.808,342.388,324.61,342.253,324.49z"/>
	<path style="fill:#CECECE;" d="M328.974,126.865c-0.131-0.116-0.337-0.105-0.452,0.03L144.176,337.807
		c-0.116,0.131-0.105,0.337,0.026,0.449c0.067,0.056,0.138,0.079,0.213,0.079c0.09,0,0.18-0.037,0.239-0.108l184.354-210.912
		C329.124,127.183,329.109,126.977,328.974,126.865z"/>
	<path style="fill:#CECECE;" d="M229.629,92.667c-0.007-0.176-0.157-0.307-0.333-0.299c-0.179,0.007-0.314,0.161-0.303,0.337
		l14.554,279.746c0.007,0.172,0.146,0.303,0.318,0.303h0.019c0.176-0.011,0.31-0.157,0.303-0.337L229.629,92.667z"/>
	<path style="fill:#CECECE;" d="M376.448,224.962L96.698,239.52c-0.18,0.011-0.314,0.161-0.303,0.337
		c0.011,0.172,0.15,0.303,0.318,0.303h0.019l279.746-14.554c0.176-0.011,0.31-0.161,0.303-0.337
		C376.773,225.089,376.624,224.947,376.448,224.962z"/>
</g>
<g>
	<path style="fill:#EAEAEA;" d="M238.959,231.943c0-0.004-0.004-0.004-0.004-0.007c-0.026-0.142-0.064-0.28-0.116-0.415
		c-0.004-0.007-0.004-0.019-0.007-0.026c-0.052-0.127-0.112-0.243-0.187-0.363c-0.004-0.011-0.011-0.022-0.019-0.034
		c-0.071-0.108-0.15-0.213-0.243-0.307c-0.011-0.015-0.015-0.026-0.03-0.037c-0.082-0.086-0.183-0.168-0.28-0.239
		c-0.019-0.011-0.037-0.03-0.052-0.041c-0.086-0.064-0.187-0.112-0.284-0.165c-0.037-0.015-0.071-0.037-0.108-0.056
		c-0.079-0.034-0.161-0.06-0.251-0.082c-0.06-0.019-0.12-0.041-0.187-0.056c-0.022-0.004-0.045-0.011-0.067-0.019
		c-0.052-0.007-0.105-0.007-0.161-0.011c-0.079-0.007-0.15-0.011-0.228-0.011c-0.079,0-0.15,0.004-0.224,0.011
		c-0.06,0.004-0.108,0.004-0.168,0.011c-0.022,0.007-0.041,0.015-0.071,0.019c-0.06,0.015-0.116,0.037-0.179,0.056
		c-0.086,0.022-0.176,0.052-0.254,0.086c-0.037,0.015-0.067,0.034-0.094,0.045c-0.101,0.052-0.206,0.108-0.303,0.176
		c-0.007,0.007-0.019,0.019-0.03,0.026c-0.112,0.079-0.209,0.161-0.303,0.254c-0.007,0.007-0.011,0.015-0.015,0.019
		c-0.093,0.101-0.183,0.209-0.254,0.325c-0.004,0.007-0.007,0.015-0.015,0.022c-0.075,0.116-0.138,0.239-0.191,0.378
		c0,0-0.004,0.007-0.004,0.015c-0.056,0.135-0.093,0.277-0.116,0.419c0,0.004-0.004,0.004-0.004,0.007L199.873,431.58
		c-0.217,1.23,0.61,2.405,1.84,2.614c0.131,0.022,0.258,0.034,0.389,0.034c1.077,0,2.034-0.774,2.229-1.877l32.4-186.743
		l32.478,186.908c0.191,1.103,1.148,1.877,2.225,1.877c0.127,0,0.258-0.007,0.389-0.037c1.227-0.209,2.057-1.38,1.84-2.61
		L238.959,231.943z"/>
	<path style="fill:#EAEAEA;" d="M236.734,232.332v0.011V232.332L236.734,232.332z M240.772,255.667l-4.039-23.324l-4.214,23.129
		L240.772,255.667z"/>
	<circle style="fill:#EAEAEA;" cx="236.603" cy="232.19" r="9.499"/>
</g>
<g>
</g>
<g>
</g>
<g>
</g>
<g>
</g>
<g>
</g>
<g>
</g>
<g>
</g>
<g>
</g>
<g>
</g>
<g>
</g>
<g>
</g>
<g>
</g>
<g>
</g>
<g>
</g>
<g>
</g>
</svg>
