<?xml version="1.0" encoding="UTF-8" standalone="no"?>
<!-- Generator: Adobe Illustrator 13.0.0, SVG Export Plug-In . SVG Version: 6.00 Build 14948)  -->

<svg
   xmlns:dc="http://purl.org/dc/elements/1.1/"
   xmlns:cc="http://creativecommons.org/ns#"
   xmlns:rdf="http://www.w3.org/1999/02/22-rdf-syntax-ns#"
   xmlns:svg="http://www.w3.org/2000/svg"
   xmlns="http://www.w3.org/2000/svg"
   xmlns:sodipodi="http://sodipodi.sourceforge.net/DTD/sodipodi-0.dtd"
   xmlns:inkscape="http://www.inkscape.org/namespaces/inkscape"
   version="1.1"
   id="Layer_1"
   x="0px"
   y="0px"
   width="172px"
   height="62px"
   viewBox="0 0 172 62"
   enable-background="new 0 0 172 62"
   xml:space="preserve"
   sodipodi:docname="BarclaysLabs.svg"
   inkscape:version="0.92.1 r15371"><metadata
     id="metadata33"><rdf:RDF><cc:Work
         rdf:about=""><dc:format>image/svg+xml</dc:format><dc:type
           rdf:resource="http://purl.org/dc/dcmitype/StillImage" /></cc:Work></rdf:RDF></metadata><defs
     id="defs31" /><sodipodi:namedview
     pagecolor="#ffffff"
     bordercolor="#666666"
     borderopacity="1"
     objecttolerance="10"
     gridtolerance="10"
     guidetolerance="10"
     inkscape:pageopacity="0"
     inkscape:pageshadow="2"
     inkscape:window-width="1920"
     inkscape:window-height="1137"
     id="namedview29"
     showgrid="false"
     inkscape:zoom="1.8255814"
     inkscape:cx="86"
     inkscape:cy="31"
     inkscape:window-x="-8"
     inkscape:window-y="-8"
     inkscape:window-maximized="1"
     inkscape:current-layer="Layer_1" /><path
     fill="none"
     d="M0.478,62"
     id="path4" /><path
     fill="none"
     d="M0.478,62"
     id="path6" /><g
     id="g26"><path
       fill="#FFFFFF"
       d="M58.901,40.183V23.753h9.055l-0.414,1.194h-7.196v5.954h6.312l-0.414,1.163h-5.885v6.908h7.747v1.21H58.901   z"
       id="path8" /><path
       fill="#FFFFFF"
       d="M78.331,40.324c-0.229-0.369-0.531-1.125-0.61-1.821c-1.299,1.284-2.581,1.956-4.12,1.956   c-2.21,0-3.42-1.327-3.42-3.191c0-2.002,1.466-3.393,4.371-3.955l3.099-0.609v-0.563c0-2.26-0.948-2.936-2.767-2.936   c-1.235,0-2.444,0.562-3.546,1.348l-0.604-1.002c0.93-0.677,2.491-1.471,4.326-1.471c2.259,0,3.91,0.86,3.91,3.93v5.52   c0,0.897,0.256,1.828,0.61,2.409L78.331,40.324z M77.659,33.736l-2.674,0.533c-2.49,0.492-3.378,1.587-3.378,3.027   c0,1.298,0.795,2.07,2.213,2.07c1.258,0,2.568-0.807,3.839-2.07V33.736z"
       id="path10" /><path
       fill="#FFFFFF"
       d="M86.873,45.297c-1.347,0-2.797-0.303-4.001-0.79l-0.097-1.377c1.239,0.672,2.795,1.008,4.005,1.008   c2.415,0,3.77-1.395,3.77-4.31v-1.09c-0.903,0.807-1.926,1.586-3.77,1.586c-3.165,0-4.815-2.493-4.815-5.992   c0-4.028,2.37-6.232,5.633-6.232c1.352,0,2.329,0.278,3.12,0.581l1.161-0.302v11.073C91.879,43.449,90.064,45.297,86.873,45.297z    M90.55,29.853c-0.701-0.302-1.725-0.61-2.751-0.61c-2.883,0-4.412,1.559-4.412,4.981c0,3.396,1.344,4.951,3.603,4.951   c2.049,0,3.561-1.555,3.561-2.768V29.853z"
       id="path12" /><path
       fill="#FFFFFF"
       d="M95.466,40.183v-17.34l1.325-0.37v17.709H95.466z"
       id="path14" /><path
       fill="#FFFFFF"
       d="M101.15,34.27c-0.033,0.213-0.033,0.348-0.033,0.516c0,2.718,1.377,4.523,4.005,4.523   c0.975,0,2.169-0.421,3.117-1.025l0.578,1.025c-1.116,0.714-2.225,1.158-3.811,1.158c-3.707,0-5.308-2.722-5.308-5.866   c0-3.833,2.071-6.491,5.214-6.491c2.949,0,4.259,2.188,4.259,4.904v1.256H101.15z M107.869,33.059c0-2.366-1.026-3.833-3.023-3.833   c-2.09,0-3.325,1.881-3.635,3.986h6.658V33.059z"
       id="path16" /><path
       fill="#FFFFFF"
       d="M117.947,40.183V23.753h1.445v15.177h7.741v1.252H117.947z"
       id="path18" /><path
       fill="#FFFFFF"
       d="M137.029,40.324c-0.229-0.369-0.53-1.125-0.605-1.821c-1.303,1.284-2.586,1.956-4.124,1.956   c-2.21,0-3.419-1.327-3.419-3.191c0-2.002,1.463-3.393,4.367-3.955l3.102-0.609v-0.563c0-2.26-0.952-2.936-2.766-2.936   c-1.232,0-2.441,0.562-3.543,1.348l-0.604-1.002c0.922-0.677,2.486-1.471,4.326-1.471c2.259,0,3.904,0.86,3.904,3.93v5.52   c0,0.897,0.262,1.828,0.612,2.409L137.029,40.324z M136.357,33.736l-2.673,0.533c-2.493,0.492-3.374,1.587-3.374,3.027   c0,1.298,0.787,2.07,2.209,2.07c1.258,0,2.568-0.807,3.838-2.07V33.736z"
       id="path20" /><path
       fill="#FFFFFF"
       d="M145.629,40.324c-1.235,0-2.217-0.142-3.076-0.47l-1.231,0.328v-17.34l1.325-0.37v7.26   c1.194-1.146,2.37-1.633,3.837-1.633c3.144,0,4.771,2.445,4.771,5.976C151.254,37.999,148.914,40.324,145.629,40.324z    M146.327,29.226c-1.538,0-2.747,0.903-3.681,1.881v7.605c0.698,0.286,1.639,0.463,2.628,0.463c2.841,0,4.568-1.739,4.568-4.951   C149.843,31.04,148.533,29.226,146.327,29.226z"
       id="path22" /><path
       fill="#FFFFFF"
       d="M157.219,40.467c-1.235,0-2.352-0.184-3.748-0.721l0.422-1.143c1.023,0.444,2.165,0.764,3.341,0.764   c1.96,0,3.009-0.715,3.009-2.163c0-1.546-1.479-2.05-2.855-2.61c-2.93-1.189-3.681-1.912-3.681-3.632   c0-1.773,1.538-2.861,3.998-2.861c1.288,0,2.587,0.278,3.505,0.749l-0.448,1.096c-0.907-0.446-1.881-0.764-3.057-0.764   c-1.882,0-2.62,0.81-2.62,1.834c0,1.143,0.885,1.559,2.788,2.322c2.034,0.813,3.729,1.559,3.729,3.699   C161.594,39.535,159.57,40.467,157.219,40.467z"
       id="path24" /></g><path
     style="fill:#ffffff;stroke-width:0.54777068"
     d="M 25.492059,51.306165 C 23.432,50.256861 21.161024,48.903994 20.445446,48.299793 l -1.301051,-1.098547 1.481165,-2.238192 c 1.704893,-2.576267 3.171192,-6.402696 2.728201,-7.119469 -0.539549,-0.873009 -1.065043,-0.525107 -2.094651,1.386759 -1.235464,2.294118 -4.573178,5.591968 -3.922234,3.875388 1.042423,-2.748935 1.242715,-4.012483 0.748132,-4.719634 -0.391422,-0.559654 -0.600518,-0.58605 -0.798863,-0.100848 -0.147768,0.361473 -0.778513,1.305388 -1.401657,2.097587 -1.410038,1.792572 -2.050026,1.273912 -3.737189,-3.028697 -2.6123047,-6.661909 -1.804976,-15.353602 1.700068,-18.302902 2.663003,-2.240769 6.529703,-1.744443 6.529703,0.838146 0,0.517187 -0.308121,1.044044 -0.684713,1.170794 -1.345182,0.452747 0.734901,2.051924 2.668982,2.051924 2.517059,0 4.041209,-1.611424 4.041209,-4.272612 0,-2.471069 -0.771215,-3.396178 -2.831216,-3.396178 -1.08638,0 -1.43174,-0.221056 -1.21752,-0.779303 0.394725,-1.028636 1.418277,-1.382653 5.114617,-1.768997 3.575676,-0.373732 4.303634,0.156481 4.747702,3.458021 0.706884,5.255513 1.414856,6.211298 4.600859,6.211298 2.026314,0 3.631801,-1.069511 2.281267,-1.519689 -0.836683,-0.278895 -0.82923,-1.911121 0.01257,-2.752922 0.926446,-0.926446 3.801287,-0.816714 5.253604,0.200529 4.351561,3.047951 5.050216,13.467567 1.387658,20.695277 l -1.407224,2.777024 -1.244464,-1.446776 c -0.684455,-0.795726 -1.362958,-1.771445 -1.507783,-2.168262 -0.202319,-0.554349 -0.421842,-0.572481 -0.947615,-0.07827 -0.668405,0.628277 -0.548621,1.311311 0.823816,4.697552 0.235685,0.581509 0.141434,0.958599 -0.239594,0.958599 -0.345461,0 -1.651151,-1.604696 -2.901533,-3.565989 -1.403188,-2.20098 -2.468621,-3.370791 -2.783365,-3.056046 -0.68393,0.68393 0.878966,5.183199 2.726593,7.849326 1.409456,2.033846 1.42006,2.110074 0.404178,2.905513 -1.722997,1.349114 -5.296726,3.424704 -7.431447,4.31612 -1.957184,0.817279 -2.097236,0.791221 -5.751593,-1.070148 z"
     id="path35"
     inkscape:connector-curvature="0" /></svg>